<?xml version="1.0" encoding="UTF-8"?>
<svg id="Layer_2" data-name="Layer 2" xmlns="http://www.w3.org/2000/svg" viewBox="0 0 405.24 93.03">
  <defs>
    <style>
      .cls-1 {
        fill: #1b459c;
      }
    </style>
  </defs>
  <g id="Layer_1-2" data-name="Layer 1">
    <g>
      <path class="cls-1" d="M110.17,57.55v-2.8h13.04v2.8h-4.86v13.21h-3.3v-13.21h-4.88Z"/>
      <path class="cls-1" d="M125.01,70.76v-16.01h6.37c1.21,0,2.25.21,3.12.64.87.43,1.54,1.03,2.01,1.82.47.78.71,1.71.71,2.79s-.25,1.97-.74,2.74c-.49.77-1.18,1.37-2.08,1.78-.89.42-1.96.62-3.18.62h-4.23v-2.67h4.12c.6,0,1.11-.1,1.54-.3.42-.2.75-.49.97-.86.22-.37.34-.81.34-1.32s-.11-.97-.34-1.34c-.23-.37-.55-.66-.98-.86-.43-.2-.94-.31-1.54-.31h-2.78v13.27h-3.3ZM134.05,70.76l-3.71-7.24h3.49l3.79,7.24h-3.58Z"/>
      <path class="cls-1" d="M138.3,70.76l5.59-16.01h4.27l5.62,16.01h-3.67l-2.53-7.78c-.31-1.02-.62-2.08-.95-3.19-.33-1.11-.68-2.35-1.05-3.73h.87c-.38,1.38-.73,2.63-1.05,3.74s-.64,2.17-.96,3.18l-2.57,7.78h-3.58ZM141.84,67.23v-2.63h8.4v2.63h-8.4Z"/>
      <path class="cls-1" d="M158.52,54.75v16.01h-3.3v-16.01h3.3Z"/>
      <path class="cls-1" d="M161.02,70.76v-16.01h3.53l5.13,8.17c.18.29.39.65.64,1.09s.51.91.78,1.42.53,1.02.78,1.54l-.37.67c-.03-.52-.06-1.09-.08-1.74-.03-.64-.04-1.26-.06-1.85-.01-.59-.02-1.07-.02-1.42v-7.87h3.32v16.01h-3.54l-4.65-7.4c-.22-.36-.48-.79-.77-1.29s-.61-1.07-.96-1.71c-.35-.64-.72-1.33-1.12-2.06l.54-.29c.05.78.09,1.52.11,2.22.03.7.04,1.31.05,1.85s.02.96.02,1.27v7.41h-3.32Z"/>
      <path class="cls-1" d="M180.46,54.75v16.01h-3.3v-16.01h3.3Z"/>
      <path class="cls-1" d="M182.96,70.76v-16.01h3.53l5.13,8.17c.18.29.39.65.64,1.09s.51.91.78,1.42.53,1.02.78,1.54l-.37.67c-.03-.52-.06-1.09-.08-1.74-.03-.64-.04-1.26-.06-1.85-.01-.59-.02-1.07-.02-1.42v-7.87h3.32v16.01h-3.54l-4.65-7.4c-.22-.36-.48-.79-.77-1.29s-.61-1.07-.96-1.71c-.35-.64-.72-1.33-1.12-2.06l.54-.29c.05.78.09,1.52.11,2.22.03.7.04,1.31.05,1.85s.02.96.02,1.27v7.41h-3.32Z"/>
      <path class="cls-1" d="M206.21,71.01c-1.51,0-2.84-.34-3.98-1.03-1.14-.68-2.03-1.64-2.67-2.88-.64-1.24-.96-2.68-.96-4.34s.33-3.19.99-4.42c.66-1.24,1.56-2.19,2.7-2.85,1.14-.66,2.42-.99,3.86-.99.92,0,1.77.13,2.57.4.8.27,1.51.65,2.13,1.14.62.5,1.13,1.09,1.53,1.76.4.68.65,1.43.75,2.26h-3.35c-.09-.4-.24-.76-.45-1.09-.2-.33-.46-.6-.76-.84-.3-.23-.65-.41-1.04-.54-.39-.12-.82-.19-1.29-.19-.88,0-1.64.22-2.29.65s-1.14,1.05-1.49,1.84-.52,1.75-.52,2.86.17,2.04.52,2.84.85,1.41,1.5,1.84c.65.43,1.43.64,2.32.64.75,0,1.41-.14,1.97-.43s1-.68,1.32-1.19.47-1.1.47-1.78l.76.06h-4.26v-2.5h6.72v2.03c0,1.34-.3,2.51-.91,3.52s-1.44,1.8-2.5,2.36c-1.06.56-2.28.84-3.65.84Z"/>
      <path class="cls-1" d="M223.5,54.75v16.01h-3.3v-16.01h3.3Z"/>
      <path class="cls-1" d="M226,70.76v-16.01h3.53l5.13,8.17c.18.29.39.65.64,1.09s.51.91.78,1.42.53,1.02.78,1.54l-.37.67c-.03-.52-.06-1.09-.08-1.74-.03-.64-.04-1.26-.06-1.85-.01-.59-.02-1.07-.02-1.42v-7.87h3.32v16.01h-3.54l-4.65-7.4c-.22-.36-.48-.79-.77-1.29s-.61-1.07-.96-1.71c-.35-.64-.72-1.33-1.12-2.06l.54-.29c.05.78.09,1.52.11,2.22.03.7.04,1.31.05,1.85s.02.96.02,1.27v7.41h-3.32Z"/>
      <path class="cls-1" d="M248.16,71.01c-1.35,0-2.5-.21-3.47-.63-.96-.42-1.7-1.04-2.22-1.85-.52-.81-.78-1.8-.79-2.95h3.19c.01.57.16,1.06.43,1.47.27.4.65.71,1.14.93s1.06.32,1.72.32c.61,0,1.14-.09,1.59-.26s.8-.41,1.05-.72c.25-.31.38-.67.38-1.07,0-.35-.1-.65-.3-.91-.2-.25-.51-.47-.93-.66-.42-.19-.96-.35-1.62-.51l-1.7-.38c-1.53-.34-2.69-.88-3.46-1.61-.77-.73-1.16-1.67-1.16-2.82,0-.97.25-1.83.76-2.55.51-.73,1.22-1.29,2.13-1.7s1.97-.61,3.17-.61,2.28.21,3.17.62c.89.41,1.58,1,2.08,1.76.49.76.75,1.66.78,2.71h-3.11c-.06-.74-.35-1.31-.87-1.73s-1.21-.62-2.06-.62c-.54,0-1.03.08-1.44.25-.42.17-.74.39-.97.69-.23.29-.34.63-.34,1.02,0,.34.1.64.29.88.2.24.5.45.9.63.4.18.91.33,1.52.47l1.51.34c.81.17,1.52.39,2.13.66.61.27,1.12.58,1.54.96.41.37.72.8.92,1.29.2.49.31,1.04.31,1.66,0,1.02-.25,1.9-.76,2.64-.51.74-1.23,1.31-2.18,1.71-.94.4-2.07.6-3.38.6Z"/>
      <path class="cls-1" d="M255.48,57.55v-2.8h13.04v2.8h-4.86v13.21h-3.3v-13.21h-4.88Z"/>
      <path class="cls-1" d="M273.62,54.75v16.01h-3.3v-16.01h3.3Z"/>
      <path class="cls-1" d="M275.42,57.55v-2.8h13.04v2.8h-4.86v13.21h-3.3v-13.21h-4.88Z"/>
      <path class="cls-1" d="M296.83,71.01c-1.33,0-2.48-.25-3.47-.74-.99-.49-1.76-1.17-2.3-2.05-.54-.88-.82-1.89-.82-3.05v-10.42h3.25v10.16c0,.63.14,1.19.41,1.67.28.48.67.87,1.17,1.14.5.28,1.09.42,1.77.42s1.26-.14,1.76-.42c.5-.28.89-.66,1.17-1.14.28-.48.41-1.04.41-1.67v-10.16h3.25v10.42c0,1.16-.27,2.18-.82,3.05-.54.87-1.31,1.56-2.3,2.05-.99.49-2.15.74-3.48.74Z"/>
      <path class="cls-1" d="M305.2,57.55v-2.8h13.04v2.8h-4.86v13.21h-3.3v-13.21h-4.88Z"/>
      <path class="cls-1" d="M320.04,70.76v-16.01h11.33v2.8h-8.03v3.75h7.41v2.74h-7.41v3.91h8.03v2.8h-11.33Z"/>
    </g>
    <g>
      <path class="cls-1" d="M110.25,47.38V9.23h26.27v7.48h-17.21v9.32h15.67v7.3h-15.67v14.06h-9.06Z"/>
      <path class="cls-1" d="M150.09,9.23v38.15h-9.06V9.23h9.06Z"/>
      <path class="cls-1" d="M155.83,47.38V9.23h9.83l10.68,17.26c.63,1.02,1.27,2.13,1.92,3.32.65,1.19,1.3,2.49,1.95,3.92.65,1.43,1.3,3.01,1.95,4.75l-.9.56c-.1-1.38-.2-2.92-.29-4.61-.09-1.69-.17-3.33-.24-4.92-.07-1.59-.1-2.91-.1-3.97V9.23h9.24v38.15h-9.86l-9.81-15.82c-.79-1.3-1.54-2.59-2.25-3.88-.72-1.29-1.45-2.7-2.19-4.22-.74-1.53-1.58-3.27-2.52-5.24l1.2-.15c.12,1.81.23,3.58.33,5.3.1,1.72.18,3.29.23,4.71.05,1.42.08,2.58.08,3.48v15.82h-9.24Z"/>
      <path class="cls-1" d="M195.59,47.38V9.23h26.91v7.48h-17.85v7.78h16.44v7.3h-16.44v8.12h17.82v7.48h-26.88Z"/>
      <path class="cls-1" d="M236.74,9.23v38.15h-9.06V9.23h9.06ZM241.73,47.38h-10.16v-7.71h9.75c2.22,0,4.08-.38,5.59-1.15,1.51-.77,2.65-1.99,3.41-3.66.76-1.67,1.14-3.86,1.14-6.55s-.39-4.88-1.17-6.55c-.78-1.67-1.92-2.89-3.44-3.66s-3.41-1.15-5.66-1.15h-9.78v-7.71h10.32c3.88,0,7.22.77,10.02,2.3,2.81,1.54,4.98,3.73,6.5,6.58,1.53,2.85,2.29,6.25,2.29,10.19s-.76,7.34-2.28,10.2c-1.52,2.86-3.69,5.05-6.5,6.58-2.82,1.53-6.16,2.29-10.04,2.29Z"/>
      <path class="cls-1" d="M282.78,47.92c-3.65,0-6.85-.79-9.6-2.38-2.75-1.59-4.89-3.84-6.43-6.77-1.54-2.93-2.3-6.4-2.3-10.41s.81-7.71,2.42-10.64c1.61-2.93,3.8-5.16,6.55-6.71,2.76-1.54,5.83-2.32,9.23-2.32,2.2,0,4.26.32,6.17.95,1.91.63,3.61,1.53,5.11,2.7,1.49,1.17,2.7,2.56,3.62,4.16.92,1.6,1.49,3.37,1.72,5.3h-9.19c-.19-.8-.5-1.52-.92-2.16-.43-.64-.95-1.18-1.56-1.63-.61-.44-1.32-.78-2.11-1.01s-1.67-.35-2.62-.35c-1.88,0-3.5.46-4.88,1.37-1.37.91-2.43,2.24-3.17,3.97-.74,1.73-1.11,3.83-1.11,6.29s.36,4.56,1.09,6.3c.72,1.74,1.77,3.07,3.15,3.99,1.37.92,3.03,1.38,4.98,1.38,1.69,0,3.13-.28,4.31-.84,1.19-.56,2.09-1.37,2.71-2.41s.93-2.26.93-3.66l1.79.2h-9.42v-6.66h16.44v5.04c0,3.36-.73,6.26-2.18,8.69-1.45,2.43-3.44,4.31-5.98,5.62-2.54,1.31-5.45,1.97-8.74,1.97Z"/>
      <path class="cls-1" d="M304.64,47.38V9.23h26.91v7.48h-17.85v7.78h16.44v7.3h-16.44v8.12h17.82v7.48h-26.88Z"/>
    </g>
    <g>
      <rect class="cls-1" x="2.16" y="51.07" width="13.86" height="28.59"/>
      <path class="cls-1" d="M33.26,36.41v38.16c-1.66.87-3.53,1.75-5.62,2.56-3.16,1.23-6.1,2.02-8.65,2.54-.05-14.42-.1-28.84-.15-43.26h14.42Z"/>
      <path class="cls-1" d="M50.41,18.02v45.34c-4.61,3.99-9.68,7.18-14.78,9.72V18.02h14.78Z"/>
      <path class="cls-1" d="M67.41,0c.13,14.45.26,28.89.4,43.34-1.35,2.56-3.16,5.51-5.59,8.56-3.26,4.1-6.63,7.14-9.43,9.3-.08-20.41-.16-40.8-.24-61.2h14.87Z"/>
      <path class="cls-1" d="M59.98,74.79c-15.39,15.63-39.05,20.56-59.98,12.44,3.03-.2,51.53-4.1,68.13-40.38,4.29-9.37,5.45-18.71,5.27-26.67,5.65,19.46.54,40.42-13.43,54.61Z"/>
      <path class="cls-1" d="M59.98,74.79c-15.39,15.63-39.05,20.56-59.98,12.44,3.03-.2,51.53-4.1,68.13-40.38,4.29-9.37,5.45-18.71,5.27-26.67,5.65,19.46.54,40.42-13.43,54.61Z"/>
    </g>
    <g>
      <path class="cls-1" d="M110.5,85.65v-.14c0-1.02.1-1.94.29-2.77.2-.83.45-1.55.76-2.18s.64-1.14,1-1.55c.36-.41.7-.71,1.02-.89l.34,1.07c-.21.21-.43.48-.65.83s-.42.78-.59,1.3c-.18.52-.32,1.12-.43,1.81s-.16,1.48-.16,2.36v.17c0,.88.05,1.66.16,2.36.11.69.25,1.3.43,1.82.18.52.38.96.59,1.31s.43.64.65.86l-.34,1.03c-.33-.19-.67-.48-1.02-.89-.36-.41-.69-.93-1-1.55s-.56-1.35-.76-2.18-.29-1.75-.29-2.76Z"/>
      <path class="cls-1" d="M118.93,80.96l-2.39,8.78h-2.02l3.29-10.43h1.26l-.14,1.65ZM120.88,85.86v1.6h-4.79v-1.6h4.79ZM120.82,89.74l-2.39-8.78-.16-1.65h1.27l3.3,10.43h-2.03Z"/>
      <path class="cls-1" d="M132.05,79.31h1.92v7.21c0,.8-.15,1.44-.44,1.94-.3.49-.7.86-1.21,1.08-.51.23-1.09.34-1.73.34s-1.24-.11-1.75-.34c-.51-.23-.91-.59-1.2-1.08-.29-.49-.43-1.14-.43-1.94v-7.21h1.91v7.21c0,.47.06.84.18,1.1.12.26.28.43.5.53.21.1.48.14.8.14s.58-.05.79-.14c.21-.1.38-.27.49-.53s.17-.62.17-1.1v-7.21Z"/>
      <path class="cls-1" d="M137.35,83.65v6.1h-1.84v-7.75h1.72l.12,1.65ZM137.05,85.6h-.53c0-.56.05-1.08.17-1.54s.3-.86.53-1.19c.23-.33.5-.58.82-.76.32-.18.68-.27,1.07-.27.31,0,.58.05.83.16.25.1.47.27.65.5.18.23.32.53.42.9.1.37.15.83.15,1.37v4.96h-1.84v-4.98c0-.35-.04-.62-.11-.82-.07-.2-.18-.34-.32-.42-.14-.08-.32-.13-.54-.13-.21,0-.39.06-.55.17-.16.11-.3.27-.41.47-.11.2-.2.44-.25.7-.06.27-.09.55-.09.86Z"/>
      <path class="cls-1" d="M142.74,79.97c0-.29.09-.53.27-.72.18-.19.43-.28.75-.28s.56.09.74.28c.18.19.27.43.27.72s-.09.52-.27.71c-.18.19-.42.28-.74.28s-.56-.09-.75-.28c-.18-.19-.27-.43-.27-.71ZM144.67,81.99v7.75h-1.84v-7.75h1.84Z"/>
      <path class="cls-1" d="M149.6,81.99v1.4h-3.88v-1.4h3.88ZM146.7,80.09h1.83v7.39c0,.22.02.4.07.52.05.12.12.2.21.25.09.04.21.06.34.06.1,0,.2,0,.29-.02.09-.01.16-.03.2-.04v1.46c-.15.05-.3.1-.47.13-.17.03-.37.05-.6.05-.37,0-.7-.07-.98-.22s-.5-.38-.66-.72c-.16-.33-.24-.77-.24-1.31v-7.56Z"/>
      <path class="cls-1" d="M153.95,86.16v-.57c0-.61.07-1.14.22-1.61.15-.47.36-.86.63-1.17.27-.31.6-.55.98-.72.38-.16.8-.24,1.26-.24s.9.08,1.28.24c.38.16.71.4.98.72.27.32.48.71.63,1.17.15.47.22,1,.22,1.61v.57c0,.61-.07,1.14-.22,1.6-.15.46-.36.85-.63,1.17s-.6.56-.98.72-.8.24-1.26.24-.88-.08-1.26-.24c-.38-.16-.71-.4-.99-.72s-.49-.71-.64-1.17c-.15-.46-.22-1-.22-1.6ZM155.79,85.59v.57c0,.38.03.7.09.98.06.27.14.5.25.68.11.18.25.32.4.4s.33.13.53.13c.21,0,.39-.04.55-.13s.29-.22.39-.4c.1-.18.18-.41.24-.68.05-.27.08-.6.08-.98v-.57c0-.37-.03-.69-.09-.97-.06-.28-.14-.51-.25-.69-.11-.18-.24-.32-.4-.41-.16-.09-.33-.14-.53-.14s-.36.05-.52.14c-.15.09-.29.23-.4.41-.11.18-.2.41-.25.69s-.09.6-.09.97Z"/>
      <path class="cls-1" d="M165.08,81.99v1.4h-4.03v-1.4h4.03ZM163.84,89.74h-1.83v-8.46c0-.58.1-1.07.3-1.47.2-.4.48-.7.84-.91.37-.21.8-.31,1.3-.31.16,0,.31.01.45.04.15.02.29.06.43.1l-.03,1.48c-.06-.02-.14-.04-.23-.05-.09,0-.19-.01-.28-.01-.2,0-.37.04-.51.13s-.25.22-.32.39c-.07.17-.11.38-.11.62v8.46Z"/>
      <path class="cls-1" d="M171.7,79.31v10.43h-1.92v-10.43h1.92ZM175.47,79.31v1.6h-4.23v-1.6h4.23ZM175.02,83.81v1.6h-3.79v-1.6h3.79Z"/>
      <path class="cls-1" d="M176.66,79.97c0-.29.09-.53.27-.72.18-.19.43-.28.75-.28s.56.09.74.28c.18.19.27.43.27.72s-.09.52-.27.71c-.18.19-.42.28-.74.28s-.56-.09-.75-.28c-.18-.19-.27-.43-.27-.71ZM178.6,81.99v7.75h-1.84v-7.75h1.84Z"/>
      <path class="cls-1" d="M182.08,83.65v6.1h-1.84v-7.75h1.72l.12,1.65ZM181.78,85.6h-.53c0-.56.05-1.08.17-1.54s.3-.86.53-1.19c.23-.33.5-.58.82-.76.32-.18.68-.27,1.07-.27.31,0,.58.05.83.16.25.1.47.27.65.5.18.23.32.53.42.9.1.37.15.83.15,1.37v4.96h-1.84v-4.98c0-.35-.04-.62-.11-.82-.07-.2-.18-.34-.32-.42-.14-.08-.32-.13-.54-.13-.21,0-.39.06-.55.17-.16.11-.3.27-.41.47-.11.2-.2.44-.25.7-.06.27-.09.55-.09.86Z"/>
      <path class="cls-1" d="M190.24,88.35c.2,0,.38-.04.53-.13.15-.08.27-.22.36-.4s.13-.42.14-.71h1.73c0,.56-.13,1.05-.38,1.47s-.57.74-.98.96c-.41.22-.87.34-1.37.34s-.97-.08-1.35-.25c-.38-.16-.7-.41-.95-.72-.25-.32-.43-.71-.56-1.16-.12-.46-.19-.98-.19-1.57v-.63c0-.59.06-1.11.19-1.57.12-.46.31-.85.56-1.16.25-.32.56-.56.95-.72.38-.16.83-.25,1.35-.25.55,0,1.03.11,1.43.34.41.23.72.56.95,1.01.23.44.35.98.35,1.63h-1.73c0-.31-.05-.58-.12-.79s-.19-.38-.34-.49c-.15-.11-.34-.17-.57-.17-.25,0-.45.05-.61.15-.16.1-.27.24-.35.43-.08.19-.14.41-.17.68s-.05.57-.05.92v.63c0,.35.01.67.04.93.03.27.08.5.16.68.08.18.2.32.36.42s.36.14.62.14Z"/>
      <path class="cls-1" d="M197.96,85.02v1.15s-.77,0-.77,0c-.21,0-.4.03-.57.09s-.3.15-.42.26c-.11.11-.2.25-.26.41-.06.16-.09.33-.09.52,0,.21.03.39.09.53.06.14.15.25.27.31.12.07.26.1.44.1.24,0,.46-.05.63-.16.18-.1.31-.23.41-.38.09-.15.13-.28.1-.41l.42.74c-.05.18-.12.36-.22.56-.1.2-.23.38-.38.55s-.34.31-.57.42c-.22.11-.48.16-.78.16-.42,0-.81-.09-1.15-.28-.34-.19-.61-.45-.81-.79-.2-.34-.29-.75-.29-1.23,0-.39.06-.74.19-1.06.13-.31.32-.58.57-.81.25-.22.57-.4.96-.52.39-.12.84-.18,1.36-.18h.86ZM197.73,88.07v-3.72c0-.25-.03-.45-.1-.6-.06-.15-.16-.26-.28-.33s-.28-.1-.46-.1c-.2,0-.36.04-.49.12-.13.08-.23.19-.3.34-.06.15-.1.32-.1.51h-1.84c0-.32.06-.63.19-.92.13-.29.32-.55.56-.78.24-.23.54-.4.88-.53s.73-.19,1.15-.19c.51,0,.96.08,1.35.25.39.17.7.44.93.81.23.37.34.85.34,1.45v3.54c0,.4.02.73.07,1.01.04.28.11.51.2.71v.12h-1.86c-.08-.2-.14-.46-.19-.76-.04-.31-.06-.61-.06-.91Z"/>
      <path class="cls-1" d="M203,83.61v6.14h-1.83v-7.75h1.74l.09,1.61ZM204.85,81.94v1.83c-.11-.02-.22-.03-.33-.04-.12,0-.23-.01-.33-.01-.22,0-.42.04-.58.11-.16.08-.3.19-.41.33-.11.14-.19.32-.25.53-.06.21-.09.44-.11.71l-.37-.06c0-.5.04-.96.12-1.38.08-.42.2-.79.35-1.1.16-.31.35-.56.58-.73s.49-.26.79-.26c.09,0,.19,0,.3.03s.19.04.25.06Z"/>
      <path class="cls-1" d="M208.83,89.89c-.52,0-.97-.08-1.37-.24-.4-.16-.74-.39-1.01-.69-.28-.3-.49-.67-.63-1.11-.15-.44-.22-.94-.22-1.51v-.69c0-.65.07-1.2.22-1.68.15-.48.35-.87.62-1.18.26-.31.58-.55.96-.7.37-.16.79-.23,1.24-.23.49,0,.91.08,1.28.24.37.16.67.4.91.71.24.32.42.71.53,1.17.12.47.18,1,.18,1.62v.88h-5.12v-1.34h3.31v-.18c0-.33-.05-.62-.12-.85-.07-.23-.19-.41-.34-.53-.16-.12-.37-.18-.63-.18-.21,0-.39.04-.54.13-.15.08-.28.21-.37.39-.09.17-.16.41-.21.69s-.07.64-.07,1.06v.69c0,.37.03.68.1.93.07.26.16.46.29.62.13.16.29.28.47.35.19.07.4.11.65.11.37,0,.7-.07.98-.2.28-.14.53-.32.73-.55l.77,1.12c-.14.19-.33.37-.57.55-.24.18-.53.33-.86.44-.34.11-.73.17-1.17.17Z"/>
      <path class="cls-1" d="M215.82,89.89c-.52,0-.97-.08-1.37-.24-.4-.16-.74-.39-1.01-.69-.28-.3-.49-.67-.63-1.11-.15-.44-.22-.94-.22-1.51v-.69c0-.65.07-1.2.22-1.68.15-.48.35-.87.62-1.18.26-.31.58-.55.96-.7.37-.16.79-.23,1.24-.23.49,0,.91.08,1.28.24.37.16.67.4.91.71.24.32.42.71.53,1.17.12.47.18,1,.18,1.62v.88h-5.12v-1.34h3.31v-.18c0-.33-.05-.62-.12-.85-.07-.23-.19-.41-.34-.53-.16-.12-.37-.18-.63-.18-.21,0-.39.04-.54.13-.15.08-.28.21-.37.39-.09.17-.16.41-.21.69s-.07.64-.07,1.06v.69c0,.37.03.68.1.93.07.26.16.46.29.62.13.16.29.28.47.35.19.07.4.11.65.11.37,0,.7-.07.98-.2.28-.14.53-.32.73-.55l.77,1.12c-.14.19-.33.37-.57.55-.24.18-.53.33-.86.44-.34.11-.73.17-1.17.17Z"/>
      <path class="cls-1" d="M221.61,83.61v6.14h-1.83v-7.75h1.74l.09,1.61ZM223.46,81.94v1.83c-.11-.02-.22-.03-.33-.04-.12,0-.23-.01-.33-.01-.22,0-.42.04-.58.11-.16.08-.3.19-.41.33-.11.14-.19.32-.25.53-.06.21-.09.44-.11.71l-.37-.06c0-.5.04-.96.12-1.38.08-.42.2-.79.35-1.1.16-.31.35-.56.58-.73s.49-.26.79-.26c.09,0,.19,0,.3.03s.19.04.25.06Z"/>
      <path class="cls-1" d="M229.96,79.31v10.43h-1.92v-10.43h1.92ZM233.9,79.31v1.6h-4.5v-1.6h4.5ZM233.32,83.6v1.55h-3.92v-1.55h3.92ZM233.93,88.15v1.6h-4.53v-1.6h4.53Z"/>
      <path class="cls-1" d="M234.73,86.16v-.56c0-.64.06-1.19.17-1.66.11-.47.28-.86.49-1.17.22-.31.48-.54.8-.69s.67-.23,1.07-.23c.38,0,.71.09.99.27.28.18.52.43.71.76s.35.71.47,1.16c.12.45.2.94.25,1.47v.8c-.06.51-.14.99-.26,1.43-.12.44-.27.82-.47,1.14-.2.32-.43.57-.71.75-.28.18-.61.27-.98.27-.4,0-.76-.08-1.07-.24s-.58-.4-.79-.71c-.22-.31-.38-.7-.49-1.17-.11-.47-.17-1-.17-1.61ZM236.57,85.6v.56c0,.38.02.7.06.98.04.27.11.5.2.67.09.17.22.3.37.39s.34.12.57.12c.29,0,.52-.07.7-.21.18-.14.32-.34.41-.59.1-.25.16-.54.19-.86v-1.51c-.01-.26-.05-.49-.11-.71-.06-.21-.15-.4-.25-.56-.11-.16-.23-.28-.39-.36-.15-.09-.33-.13-.54-.13-.22,0-.42.04-.57.13s-.28.22-.37.4-.16.4-.21.68c-.04.28-.07.61-.07.99ZM238.83,88.08v-9.34h1.83v11h-1.66s-.17-1.66-.17-1.66Z"/>
      <path class="cls-1" d="M245.53,81.99v1.4h-3.88v-1.4h3.88ZM242.63,80.09h1.83v7.39c0,.22.02.4.07.52.05.12.12.2.21.25.09.04.21.06.34.06.1,0,.2,0,.29-.02.09-.01.16-.03.2-.04v1.46c-.15.05-.3.1-.47.13-.17.03-.37.05-.6.05-.37,0-.7-.07-.98-.22s-.5-.38-.66-.72c-.16-.33-.24-.77-.24-1.31v-7.56Z"/>
      <path class="cls-1" d="M249.78,89.89c-.52,0-.97-.08-1.37-.24-.4-.16-.74-.39-1.01-.69-.28-.3-.49-.67-.63-1.11-.15-.44-.22-.94-.22-1.51v-.69c0-.65.07-1.2.22-1.68.15-.48.35-.87.62-1.18.26-.31.58-.55.96-.7.37-.16.79-.23,1.24-.23.49,0,.91.08,1.28.24.37.16.67.4.91.71.24.32.42.71.53,1.17.12.47.18,1,.18,1.62v.88h-5.12v-1.34h3.31v-.18c0-.33-.05-.62-.12-.85-.07-.23-.19-.41-.34-.53-.16-.12-.37-.18-.63-.18-.21,0-.39.04-.54.13-.15.08-.28.21-.37.39-.09.17-.16.41-.21.69s-.07.64-.07,1.06v.69c0,.37.03.68.1.93.07.26.16.46.29.62.13.16.29.28.47.35.19.07.4.11.65.11.37,0,.7-.07.98-.2.28-.14.53-.32.73-.55l.77,1.12c-.14.19-.33.37-.57.55-.24.18-.53.33-.86.44-.34.11-.73.17-1.17.17Z"/>
      <path class="cls-1" d="M256.5,88.35c.2,0,.38-.04.53-.13.15-.08.27-.22.36-.4s.13-.42.14-.71h1.73c0,.56-.13,1.05-.38,1.47s-.57.74-.98.96c-.41.22-.87.34-1.37.34s-.97-.08-1.35-.25c-.38-.16-.7-.41-.95-.72-.25-.32-.43-.71-.56-1.16-.12-.46-.19-.98-.19-1.57v-.63c0-.59.06-1.11.19-1.57.12-.46.31-.85.56-1.16.25-.32.56-.56.95-.72.38-.16.83-.25,1.35-.25.55,0,1.03.11,1.43.34.41.23.72.56.95,1.01.23.44.35.98.35,1.63h-1.73c0-.31-.05-.58-.12-.79s-.19-.38-.34-.49c-.15-.11-.34-.17-.57-.17-.25,0-.45.05-.61.15-.16.1-.27.24-.35.43-.08.19-.14.41-.17.68s-.05.57-.05.92v.63c0,.35.01.67.04.93.03.27.08.5.16.68.08.18.2.32.36.42s.36.14.62.14Z"/>
      <path class="cls-1" d="M262.28,78.74v11h-1.84v-11h1.84ZM261.99,85.6h-.54c0-.53.05-1.03.17-1.49.12-.46.29-.86.5-1.19.22-.34.49-.6.8-.78.31-.19.66-.28,1.04-.28.32,0,.6.05.87.16s.49.28.68.51c.19.23.34.54.44.91.1.38.15.83.15,1.37v4.94h-1.84v-4.95c0-.35-.04-.63-.11-.83-.07-.21-.18-.35-.33-.44s-.33-.13-.54-.13-.42.06-.58.17c-.17.11-.3.27-.41.47-.11.2-.19.44-.24.7-.05.27-.08.55-.08.86Z"/>
      <path class="cls-1" d="M277.38,79.31v1.6h-7.12v-1.6h7.12ZM274.75,79.31v10.43h-1.91v-10.43h1.91Z"/>
      <path class="cls-1" d="M280.93,89.89c-.52,0-.97-.08-1.37-.24-.4-.16-.74-.39-1.01-.69-.28-.3-.49-.67-.63-1.11-.15-.44-.22-.94-.22-1.51v-.69c0-.65.07-1.2.22-1.68.15-.48.35-.87.62-1.18.26-.31.58-.55.96-.7.37-.16.79-.23,1.24-.23.49,0,.91.08,1.28.24.37.16.67.4.91.71.24.32.42.71.53,1.17.12.47.18,1,.18,1.62v.88h-5.12v-1.34h3.31v-.18c0-.33-.05-.62-.12-.85-.07-.23-.19-.41-.34-.53-.16-.12-.37-.18-.63-.18-.21,0-.39.04-.54.13-.15.08-.28.21-.37.39-.09.17-.16.41-.21.69s-.07.64-.07,1.06v.69c0,.37.03.68.1.93.07.26.16.46.29.62.13.16.29.28.47.35.19.07.4.11.65.11.37,0,.7-.07.98-.2.28-.14.53-.32.73-.55l.77,1.12c-.14.19-.33.37-.57.55-.24.18-.53.33-.86.44-.34.11-.73.17-1.17.17Z"/>
      <path class="cls-1" d="M287.66,88.35c.2,0,.38-.04.53-.13.15-.08.27-.22.36-.4s.13-.42.14-.71h1.73c0,.56-.13,1.05-.38,1.47s-.57.74-.98.96c-.41.22-.87.34-1.37.34s-.97-.08-1.35-.25c-.38-.16-.7-.41-.95-.72-.25-.32-.43-.71-.56-1.16-.12-.46-.19-.98-.19-1.57v-.63c0-.59.06-1.11.19-1.57.12-.46.31-.85.56-1.16.25-.32.56-.56.95-.72.38-.16.83-.25,1.35-.25.55,0,1.03.11,1.43.34.41.23.72.56.95,1.01.23.44.35.98.35,1.63h-1.73c0-.31-.05-.58-.12-.79s-.19-.38-.34-.49c-.15-.11-.34-.17-.57-.17-.25,0-.45.05-.61.15-.16.1-.27.24-.35.43-.08.19-.14.41-.17.68s-.05.57-.05.92v.63c0,.35.01.67.04.93.03.27.08.5.16.68.08.18.2.32.36.42s.36.14.62.14Z"/>
      <path class="cls-1" d="M293.44,78.74v11h-1.84v-11h1.84ZM293.14,85.6h-.54c0-.53.05-1.03.17-1.49.12-.46.29-.86.5-1.19.22-.34.49-.6.8-.78.31-.19.66-.28,1.04-.28.32,0,.6.05.87.16s.49.28.68.51c.19.23.34.54.44.91.1.38.15.83.15,1.37v4.94h-1.84v-4.95c0-.35-.04-.63-.11-.83-.07-.21-.18-.35-.33-.44s-.33-.13-.54-.13-.42.06-.58.17c-.17.11-.3.27-.41.47-.11.2-.19.44-.24.7-.05.27-.08.55-.08.86Z"/>
      <path class="cls-1" d="M300.64,83.65v6.1h-1.84v-7.75h1.72l.12,1.65ZM300.33,85.6h-.53c0-.56.05-1.08.17-1.54s.3-.86.53-1.19c.23-.33.5-.58.82-.76.32-.18.68-.27,1.07-.27.31,0,.58.05.83.16.25.1.47.27.65.5.18.23.32.53.42.9.1.37.15.83.15,1.37v4.96h-1.84v-4.98c0-.35-.04-.62-.11-.82-.07-.2-.18-.34-.32-.42-.14-.08-.32-.13-.54-.13-.21,0-.39.06-.55.17-.16.11-.3.27-.41.47-.11.2-.2.44-.25.7-.06.27-.09.55-.09.86Z"/>
      <path class="cls-1" d="M305.78,86.16v-.57c0-.61.07-1.14.22-1.61.15-.47.36-.86.63-1.17.27-.31.6-.55.98-.72.38-.16.8-.24,1.26-.24s.9.08,1.28.24c.38.16.71.4.98.72.27.32.48.71.63,1.17.15.47.22,1,.22,1.61v.57c0,.61-.07,1.14-.22,1.6-.15.46-.36.85-.63,1.17s-.6.56-.98.72-.8.24-1.26.24-.88-.08-1.26-.24c-.38-.16-.71-.4-.99-.72s-.49-.71-.64-1.17c-.15-.46-.22-1-.22-1.6ZM307.62,85.59v.57c0,.38.03.7.09.98.06.27.14.5.25.68.11.18.25.32.4.4s.33.13.53.13c.21,0,.39-.04.55-.13s.29-.22.39-.4c.1-.18.18-.41.24-.68.05-.27.08-.6.08-.98v-.57c0-.37-.03-.69-.09-.97-.06-.28-.14-.51-.25-.69-.11-.18-.24-.32-.4-.41-.16-.09-.33-.14-.53-.14s-.36.05-.52.14c-.15.09-.29.23-.4.41-.11.18-.2.41-.25.69s-.09.6-.09.97Z"/>
      <path class="cls-1" d="M315.27,78.74v11h-1.84v-11h1.84Z"/>
      <path class="cls-1" d="M316.71,86.16v-.57c0-.61.07-1.14.22-1.61.15-.47.36-.86.63-1.17.27-.31.6-.55.98-.72.38-.16.8-.24,1.26-.24s.9.08,1.28.24c.38.16.71.4.98.72.27.32.48.71.63,1.17.15.47.22,1,.22,1.61v.57c0,.61-.07,1.14-.22,1.6-.15.46-.36.85-.63,1.17s-.6.56-.98.72-.8.24-1.26.24-.88-.08-1.26-.24c-.38-.16-.71-.4-.99-.72s-.49-.71-.64-1.17c-.15-.46-.22-1-.22-1.6ZM318.55,85.59v.57c0,.38.03.7.09.98.06.27.14.5.25.68.11.18.25.32.4.4s.33.13.53.13c.21,0,.39-.04.55-.13s.29-.22.39-.4c.1-.18.18-.41.24-.68.05-.27.08-.6.08-.98v-.57c0-.37-.03-.69-.09-.97-.06-.28-.14-.51-.25-.69-.11-.18-.24-.32-.4-.41-.16-.09-.33-.14-.53-.14s-.36.05-.52.14c-.15.09-.29.23-.4.41-.11.18-.2.41-.25.69s-.09.6-.09.97Z"/>
      <path class="cls-1" d="M324.02,86.16v-.56c0-.64.06-1.19.18-1.66.12-.47.29-.86.52-1.17.23-.31.5-.54.83-.69.32-.15.69-.23,1.1-.23s.77.09,1.06.27c.29.18.52.43.7.76s.32.71.42,1.16c.1.45.18.94.23,1.47v.8c-.05.51-.13.99-.25,1.43-.12.44-.27.82-.47,1.14-.19.32-.43.57-.71.75-.28.18-.62.27-1.01.27s-.76-.08-1.08-.24-.6-.4-.82-.71c-.23-.31-.4-.7-.52-1.17-.12-.47-.18-1-.18-1.61ZM328.36,81.99h1.67v7.76c0,.7-.13,1.28-.39,1.73-.26.45-.63.78-1.09.99-.47.21-1.01.32-1.63.32-.23,0-.5-.03-.8-.1s-.59-.17-.88-.31c-.28-.14-.52-.31-.71-.5l.64-1.27c.21.21.46.37.76.5.3.13.6.19.88.19s.54-.05.74-.14c.2-.1.36-.25.46-.48.11-.22.16-.52.16-.91v-6.01l.18-1.78ZM325.86,85.6v.56c0,.38.02.7.08.98.05.27.13.5.23.67s.24.3.4.39c.16.08.36.12.58.12.3,0,.55-.07.74-.21.19-.14.33-.34.42-.59.1-.25.16-.54.19-.86v-1.51c-.02-.26-.06-.49-.12-.71-.06-.21-.14-.4-.25-.56s-.24-.28-.4-.36-.35-.13-.56-.13-.41.04-.58.13c-.17.09-.3.22-.41.4-.1.18-.18.4-.24.68s-.08.61-.08.99Z"/>
      <path class="cls-1" d="M331.62,79.97c0-.29.09-.53.27-.72.18-.19.43-.28.75-.28s.56.09.74.28c.18.19.27.43.27.72s-.09.52-.27.71c-.18.19-.42.28-.74.28s-.56-.09-.75-.28c-.18-.19-.27-.43-.27-.71ZM333.55,81.99v7.75h-1.84v-7.75h1.84Z"/>
      <path class="cls-1" d="M338.27,89.89c-.52,0-.97-.08-1.37-.24-.4-.16-.74-.39-1.01-.69-.28-.3-.49-.67-.63-1.11-.15-.44-.22-.94-.22-1.51v-.69c0-.65.07-1.2.22-1.68.15-.48.35-.87.62-1.18.26-.31.58-.55.96-.7.37-.16.79-.23,1.24-.23.49,0,.91.08,1.28.24.37.16.67.4.91.71.24.32.42.71.53,1.17.12.47.18,1,.18,1.62v.88h-5.12v-1.34h3.31v-.18c0-.33-.05-.62-.12-.85-.07-.23-.19-.41-.34-.53-.16-.12-.37-.18-.63-.18-.21,0-.39.04-.54.13-.15.08-.28.21-.37.39-.09.17-.16.41-.21.69s-.07.64-.07,1.06v.69c0,.37.03.68.1.93.07.26.16.46.29.62.13.16.29.28.47.35.19.07.4.11.65.11.37,0,.7-.07.98-.2.28-.14.53-.32.73-.55l.77,1.12c-.14.19-.33.37-.57.55-.24.18-.53.33-.86.44-.34.11-.73.17-1.17.17Z"/>
      <path class="cls-1" d="M345.73,87.67c0-.15-.05-.28-.14-.39-.09-.11-.24-.23-.44-.35-.2-.12-.47-.25-.79-.39-.36-.14-.67-.29-.95-.44s-.51-.32-.7-.5c-.19-.18-.33-.39-.43-.63s-.14-.51-.14-.82.06-.62.18-.9c.12-.28.29-.52.52-.73.23-.21.5-.37.83-.49.32-.12.69-.18,1.1-.18.57,0,1.06.1,1.46.3s.72.49.94.85c.22.36.33.78.33,1.25h-1.83c0-.18-.03-.35-.09-.49-.06-.15-.16-.27-.29-.35-.13-.09-.31-.13-.52-.13-.18,0-.33.04-.46.11-.13.07-.22.17-.29.28-.07.12-.1.25-.1.4,0,.11.02.22.07.3.04.09.12.17.22.25.1.08.24.16.41.24.17.08.38.18.63.29.52.2.94.4,1.28.62s.59.47.76.76c.17.29.25.65.25,1.08,0,.34-.06.65-.19.93s-.31.52-.55.73-.53.36-.87.47c-.34.11-.72.16-1.14.16-.62,0-1.13-.12-1.56-.37s-.74-.56-.96-.95c-.22-.39-.33-.79-.33-1.21h1.76c0,.28.07.5.17.66s.24.27.4.33.35.09.54.09c.21,0,.38-.03.52-.09.14-.06.24-.15.31-.27.07-.12.1-.26.1-.42Z"/>
      <path class="cls-1" d="M355.89,85.98h-2.17v-1.6h2.17c.33,0,.6-.07.8-.21.2-.14.35-.34.44-.59.09-.25.14-.54.14-.86s-.05-.6-.14-.88c-.09-.27-.24-.5-.44-.66-.2-.17-.47-.25-.8-.25h-1.58v8.83h-1.92v-10.43h3.5c.69,0,1.29.15,1.78.44s.88.69,1.14,1.2c.27.51.4,1.09.4,1.74s-.13,1.26-.4,1.75-.65.86-1.14,1.13-1.09.4-1.78.4Z"/>
      <path class="cls-1" d="M362.02,81.99l1.37,6.3.05,1.45h-1.16l-2.18-7.75h1.92ZM362.9,88.28l1.34-6.28h1.91l-2.17,7.75h-1.16l.08-1.47Z"/>
      <path class="cls-1" d="M370.44,81.99v1.4h-3.88v-1.4h3.88ZM367.54,80.09h1.83v7.39c0,.22.02.4.07.52.05.12.12.2.21.25.09.04.21.06.34.06.1,0,.2,0,.29-.02.09-.01.16-.03.2-.04v1.46c-.15.05-.3.1-.47.13-.17.03-.37.05-.6.05-.37,0-.7-.07-.98-.22s-.5-.38-.66-.72c-.16-.33-.24-.77-.24-1.31v-7.56Z"/>
      <path class="cls-1" d="M371.79,88.8c0-.3.1-.55.29-.75.19-.2.46-.3.8-.3s.61.1.8.3c.19.2.29.45.29.75s-.1.53-.29.73-.46.29-.8.29-.61-.1-.8-.29-.29-.44-.29-.73Z"/>
      <path class="cls-1" d="M381.24,79.31v10.43h-1.92v-10.43h1.92ZM385.02,88.15v1.6h-4.33v-1.6h4.33Z"/>
      <path class="cls-1" d="M389.47,81.99v1.4h-3.88v-1.4h3.88ZM386.57,80.09h1.83v7.39c0,.22.02.4.07.52.05.12.12.2.21.25.09.04.21.06.34.06.1,0,.2,0,.29-.02.09-.01.16-.03.2-.04v1.46c-.15.05-.3.1-.47.13-.17.03-.37.05-.6.05-.37,0-.7-.07-.98-.22s-.5-.38-.66-.72c-.16-.33-.24-.77-.24-1.31v-7.56Z"/>
      <path class="cls-1" d="M390.4,86.16v-.56c0-.64.06-1.19.17-1.66.11-.47.28-.86.49-1.17.22-.31.48-.54.8-.69s.67-.23,1.07-.23c.38,0,.71.09.99.27.28.18.52.43.71.76s.35.71.47,1.16c.12.45.2.94.25,1.47v.8c-.06.51-.14.99-.26,1.43-.12.44-.27.82-.47,1.14-.2.32-.43.57-.71.75-.28.18-.61.27-.98.27-.4,0-.76-.08-1.07-.24s-.58-.4-.79-.71c-.22-.31-.38-.7-.49-1.17-.11-.47-.17-1-.17-1.61ZM392.25,85.6v.56c0,.38.02.7.06.98.04.27.11.5.2.67.09.17.22.3.37.39s.34.12.57.12c.29,0,.52-.07.7-.21.18-.14.32-.34.41-.59.1-.25.16-.54.19-.86v-1.51c-.01-.26-.05-.49-.11-.71-.06-.21-.15-.4-.25-.56-.11-.16-.23-.28-.39-.36-.15-.09-.33-.13-.54-.13-.22,0-.42.04-.57.13s-.28.22-.37.4-.16.4-.21.68c-.04.28-.07.61-.07.99ZM394.5,88.08v-9.34h1.83v11h-1.66s-.17-1.66-.17-1.66Z"/>
      <path class="cls-1" d="M398.09,88.8c0-.3.1-.55.29-.75.19-.2.46-.3.8-.3s.61.1.8.3c.19.2.29.45.29.75s-.1.53-.29.73-.46.29-.8.29-.61-.1-.8-.29-.29-.44-.29-.73Z"/>
      <path class="cls-1" d="M405.24,85.5v.14c0,.99-.1,1.9-.3,2.73-.2.82-.46,1.55-.78,2.18-.32.63-.66,1.15-1.03,1.57-.37.42-.72.72-1.06.91l-.35-1.03c.21-.2.43-.48.65-.83.22-.36.42-.79.59-1.31s.32-1.13.43-1.83c.11-.7.17-1.48.17-2.36v-.17c0-.88-.06-1.67-.17-2.37s-.26-1.3-.44-1.82c-.18-.52-.38-.96-.6-1.31-.22-.36-.43-.63-.63-.83l.35-1.04c.34.19.69.49,1.06.91.37.42.71.95,1.03,1.58.32.63.58,1.36.78,2.18.2.82.3,1.73.3,2.72Z"/>
    </g>
  </g>
</svg>