<?xml version="1.0" encoding="UTF-8"?>
<svg id="Layer_2" data-name="Layer 2" xmlns="http://www.w3.org/2000/svg" viewBox="0 0 332.65 91.58">
  <defs>
    <style>
      .cls-1 {
        letter-spacing: -.01em;
      }

      .cls-2 {
        letter-spacing: -.03em;
      }

      .cls-3 {
        letter-spacing: -.02em;
      }

      .cls-4 {
        letter-spacing: 0em;
      }

      .cls-5, .cls-6, .cls-7, .cls-8 {
        fill: #1b459c;
      }

      .cls-9 {
        letter-spacing: -.11em;
      }

      .cls-10 {
        letter-spacing: -.04em;
      }

      .cls-11 {
        letter-spacing: 0em;
      }

      .cls-6 {
        font-size: 22.27px;
      }

      .cls-6, .cls-8 {
        font-family: Inter28pt-SemiBold, 'Inter 28pt';
        font-weight: 600;
      }

      .cls-12 {
        letter-spacing: -.09em;
      }

      .cls-7 {
        font-family: Inter18pt-ExtraBold, 'Inter 18pt';
        font-size: 52.44px;
        font-weight: 700;
      }

      .cls-13 {
        letter-spacing: 0em;
      }

      .cls-14 {
        letter-spacing: 0em;
      }

      .cls-15 {
        letter-spacing: 0em;
      }

      .cls-8 {
        font-size: 9.23px;
      }

      .cls-16 {
        letter-spacing: 0em;
      }
    </style>
  </defs>
  <g id="Layer_1-2" data-name="Layer 1">
    <text class="cls-6" transform="translate(108.42 70.98)"><tspan x="0" y="0">TRAINING IN</tspan><tspan class="cls-1" x="131.48" y="0">S</tspan><tspan x="145.46" y="0">TITUTE</tspan></text>
    <text class="cls-7" transform="translate(106.18 47.38)"><tspan x="0" y="0">FINEDGE</tspan></text>
    <g>
      <rect class="cls-5" x="2.13" y="50.26" width="13.64" height="28.14"/>
      <path class="cls-5" d="M32.73,35.83v37.55c-1.63.86-3.48,1.72-5.53,2.52-3.11,1.21-6,1.99-8.52,2.5-.05-14.19-.1-28.38-.14-42.57h14.19Z"/>
      <path class="cls-5" d="M49.61,17.74v44.62c-4.53,3.93-9.53,7.07-14.55,9.57V17.74h14.55Z"/>
      <path class="cls-5" d="M66.34,0c.13,14.22.26,28.43.39,42.65-1.33,2.52-3.11,5.42-5.5,8.43-3.21,4.04-6.53,7.02-9.28,9.15-.08-20.08-.16-40.15-.24-60.22h14.63Z"/>
      <path class="cls-5" d="M59.03,73.61c-15.14,15.38-38.43,20.24-59.03,12.25,2.98-.2,50.71-4.03,67.05-39.74,4.22-9.22,5.37-18.41,5.19-26.25,5.56,19.15.53,39.78-13.21,53.74Z"/>
      <path class="cls-5" d="M59.03,73.61c-15.14,15.38-38.43,20.24-59.03,12.25,2.98-.2,50.71-4.03,67.05-39.74,4.22-9.22,5.37-18.41,5.19-26.25,5.56,19.15.53,39.78-13.21,53.74Z"/>
    </g>
    <text class="cls-8" transform="translate(108.42 88.51)"><tspan x="0" y="0">( A Un</tspan><tspan class="cls-16" x="25.74" y="0">i</tspan><tspan x="28" y="0">t of Fin</tspan><tspan class="cls-13" x="57.05" y="0">c</tspan><tspan x="62.22" y="0">a</tspan><tspan class="cls-4" x="67.28" y="0">r</tspan><tspan x="70.56" y="0">eer E</tspan><tspan class="cls-15" x="91.98" y="0">d</tspan><tspan class="cls-14" x="97.54" y="0">t</tspan><tspan x="100.69" y="0">ech </tspan><tspan class="cls-9" x="118.49" y="0">T</tspan><tspan class="cls-11" x="123.32" y="0">echnologies PV</tspan><tspan class="cls-2" x="189.25" y="0">T</tspan><tspan class="cls-3" x="194.79" y="0">.</tspan><tspan x="196.95" y="0"> </tspan><tspan class="cls-12" x="199.09" y="0">L</tspan><tspan x="203.34" y="0">T</tspan><tspan class="cls-10" x="209.19" y="0">D</tspan><tspan class="cls-3" x="215.27" y="0">.</tspan><tspan x="217.43" y="0" xml:space="preserve"> )</tspan></text>
  </g>
</svg>