<?xml version="1.0" encoding="UTF-8"?>
<svg id="Layer_2" data-name="Layer 2" xmlns="http://www.w3.org/2000/svg" viewBox="0 0 495.35 95.82">
  <defs>
    <style>
      .cls-1 {
        fill: #1b459c;
      }
    </style>
  </defs>
  <g id="Layer_1-2" data-name="Layer 1">
    <g>
      <path class="cls-1" d="M109.02,57.26v-2.48h12.94v2.48h-5.02v13.72h-2.89v-13.72h-5.02Z"/>
      <path class="cls-1" d="M123.94,70.98v-16.2h6.27c1.2,0,2.23.21,3.09.64.86.42,1.52,1.02,1.98,1.8.46.78.69,1.69.69,2.74s-.24,1.96-.72,2.72c-.48.77-1.17,1.36-2.05,1.77-.88.42-1.93.62-3.14.62h-4.42v-2.38h4.36c.67,0,1.23-.11,1.7-.33s.82-.54,1.06-.95c.24-.41.36-.9.36-1.46s-.12-1.05-.37-1.46c-.25-.41-.6-.72-1.07-.95s-1.03-.34-1.7-.34h-3.15v13.76h-2.89ZM133.17,70.98l-3.81-7.32h3.1l3.88,7.32h-3.17Z"/>
      <path class="cls-1" d="M137.15,70.98l5.75-16.2h3.63l5.76,16.2h-3.16l-2.85-8.49c-.28-.89-.58-1.85-.89-2.88-.31-1.03-.66-2.24-1.06-3.62h.76c-.39,1.38-.74,2.59-1.05,3.62s-.61,1.99-.9,2.88l-2.88,8.49h-3.11ZM140.56,67.08v-2.36h8.35v2.36h-8.35Z"/>
      <path class="cls-1" d="M156.82,54.79v16.2h-2.89v-16.2h2.89Z"/>
      <path class="cls-1" d="M159.63,70.98v-16.2h3.14l5.68,9.01c.17.27.38.61.62,1.04.24.42.5.88.77,1.38.27.49.53.99.78,1.49l-.32.54c-.03-.49-.06-1.03-.08-1.64-.03-.61-.04-1.19-.05-1.75-.01-.55-.02-1-.02-1.32v-8.75h2.89v16.2h-3.15l-5.11-8.11c-.21-.34-.46-.75-.75-1.24-.29-.49-.61-1.04-.97-1.67-.36-.63-.74-1.32-1.15-2.08l.45-.33c.04.8.08,1.55.1,2.25s.04,1.3.05,1.82c.01.52.02.94.02,1.24v8.12h-2.9Z"/>
      <path class="cls-1" d="M178.75,54.79v16.2h-2.89v-16.2h2.89Z"/>
      <path class="cls-1" d="M181.56,70.98v-16.2h3.14l5.68,9.01c.17.27.38.61.62,1.04.24.42.5.88.77,1.38.27.49.53.99.78,1.49l-.32.54c-.03-.49-.06-1.03-.08-1.64-.03-.61-.04-1.19-.05-1.75-.01-.55-.02-1-.02-1.32v-8.75h2.89v16.2h-3.15l-5.11-8.11c-.21-.34-.46-.75-.75-1.24-.29-.49-.61-1.04-.97-1.67-.36-.63-.74-1.32-1.15-2.08l.45-.33c.04.8.08,1.55.1,2.25s.04,1.3.05,1.82c.01.52.02.94.02,1.24v8.12h-2.9Z"/>
      <path class="cls-1" d="M204.82,71.23c-1.49,0-2.81-.35-3.95-1.04-1.14-.7-2.03-1.67-2.67-2.92-.64-1.25-.96-2.71-.96-4.38s.33-3.18.98-4.44,1.55-2.22,2.69-2.9,2.43-1.02,3.87-1.02c.91,0,1.75.13,2.54.4.79.27,1.49.65,2.11,1.15.62.5,1.12,1.08,1.53,1.76s.66,1.43.78,2.27h-2.94c-.11-.46-.28-.87-.51-1.23-.23-.37-.52-.68-.86-.95s-.73-.47-1.16-.6-.91-.21-1.42-.21c-.95,0-1.78.23-2.48.7-.7.47-1.25,1.13-1.64,2-.39.86-.58,1.89-.58,3.08s.19,2.19.58,3.06c.39.86.94,1.53,1.65,1.99.71.47,1.54.7,2.5.7.81,0,1.53-.16,2.15-.48.62-.32,1.11-.78,1.46-1.36.35-.59.53-1.27.53-2.04l.73.07h-4.49v-2.28h6.59v1.96c0,1.33-.3,2.51-.91,3.52-.61,1.01-1.44,1.8-2.49,2.37-1.05.57-2.26.85-3.63.85Z"/>
      <path class="cls-1" d="M222.26,54.79v16.2h-2.89v-16.2h2.89Z"/>
      <path class="cls-1" d="M225.07,70.98v-16.2h3.14l5.68,9.01c.17.27.38.61.62,1.04.24.42.5.88.77,1.38.27.49.53.99.78,1.49l-.32.54c-.03-.49-.06-1.03-.08-1.64-.03-.61-.04-1.19-.05-1.75-.01-.55-.02-1-.02-1.32v-8.75h2.89v16.2h-3.15l-5.11-8.11c-.21-.34-.46-.75-.75-1.24-.29-.49-.61-1.04-.97-1.67-.36-.63-.74-1.32-1.15-2.08l.45-.33c.04.8.08,1.55.1,2.25s.04,1.3.05,1.82c.01.52.02.94.02,1.24v8.12h-2.9Z"/>
      <path class="cls-1" d="M247.13,71.25c-1.31,0-2.44-.22-3.4-.65s-1.69-1.05-2.2-1.86-.78-1.78-.78-2.91h2.83c.01.63.17,1.17.46,1.61.29.45.71.79,1.23,1.02.53.24,1.15.35,1.87.35.67,0,1.26-.1,1.76-.29.5-.19.88-.46,1.16-.82.28-.35.42-.76.42-1.23,0-.39-.11-.73-.32-1.01-.21-.28-.54-.53-.98-.73s-1.01-.39-1.7-.55l-1.76-.41c-1.56-.36-2.72-.9-3.49-1.63s-1.15-1.65-1.15-2.79c0-.97.25-1.82.75-2.53.5-.72,1.2-1.28,2.09-1.68.9-.4,1.93-.6,3.1-.6s2.23.21,3.11.62,1.56,1,2.05,1.75.75,1.65.78,2.69h-2.75c-.06-.82-.37-1.46-.95-1.92-.57-.46-1.33-.7-2.26-.7-.59,0-1.12.1-1.58.29-.46.19-.82.46-1.08.79-.26.33-.39.72-.39,1.15,0,.38.11.71.33.98.22.27.54.5.97.7.43.19.97.36,1.61.52l1.61.38c.79.18,1.49.4,2.09.67s1.11.58,1.52.95c.41.37.72.8.93,1.28.21.49.32,1.04.32,1.65,0,.99-.25,1.86-.75,2.6-.5.74-1.22,1.31-2.15,1.71-.93.4-2.04.6-3.32.6Z"/>
      <path class="cls-1" d="M254.48,57.26v-2.48h12.94v2.48h-5.02v13.72h-2.89v-13.72h-5.02Z"/>
      <path class="cls-1" d="M272.3,54.79v16.2h-2.89v-16.2h2.89Z"/>
      <path class="cls-1" d="M274.3,57.26v-2.48h12.94v2.48h-5.02v13.72h-2.89v-13.72h-5.02Z"/>
      <path class="cls-1" d="M295.74,71.25c-1.32,0-2.47-.25-3.45-.75s-1.75-1.19-2.29-2.07c-.54-.88-.82-1.89-.82-3.04v-10.6h2.85v10.36c0,.69.15,1.3.46,1.83s.73.95,1.29,1.26c.55.3,1.21.46,1.96.46s1.42-.15,1.97-.46c.55-.3.98-.72,1.28-1.26.3-.53.46-1.14.46-1.83v-10.36h2.85v10.6c0,1.15-.27,2.16-.82,3.04-.54.88-1.31,1.57-2.29,2.07-.98.5-2.13.75-3.45.75Z"/>
      <path class="cls-1" d="M304.25,57.26v-2.48h12.94v2.48h-5.02v13.72h-2.89v-13.72h-5.02Z"/>
      <path class="cls-1" d="M319.18,70.98v-16.2h11.1v2.48h-8.21v4.29h7.6v2.44h-7.6v4.51h8.22v2.48h-11.11Z"/>
    </g>
    <g>
      <path class="cls-1" d="M109.05,47.38V9.23h26.27v7.48h-17.21v9.32h15.67v7.3h-15.67v14.06h-9.06Z"/>
      <path class="cls-1" d="M148.89,9.23v38.15h-9.06V9.23h9.06Z"/>
      <path class="cls-1" d="M154.63,47.38V9.23h9.83l10.68,17.26c.63,1.02,1.27,2.13,1.92,3.32.65,1.19,1.3,2.49,1.95,3.92s1.3,3.01,1.95,4.75l-.9.56c-.1-1.38-.2-2.92-.29-4.61-.09-1.69-.18-3.33-.24-4.92-.07-1.59-.1-2.91-.1-3.97V9.23h9.24v38.15h-9.86l-9.81-15.82c-.79-1.3-1.54-2.59-2.25-3.88-.72-1.29-1.45-2.7-2.19-4.22-.74-1.53-1.58-3.27-2.52-5.24l1.2-.15c.12,1.81.23,3.58.33,5.3s.18,3.29.23,4.71c.05,1.42.08,2.58.08,3.48v15.82h-9.24Z"/>
      <path class="cls-1" d="M194.39,47.38V9.23h26.91v7.48h-17.85v7.78h16.44v7.3h-16.44v8.12h17.82v7.48h-26.88Z"/>
      <path class="cls-1" d="M235.54,9.23v38.15h-9.06V9.23h9.06ZM240.53,47.38h-10.17v-7.71h9.75c2.22,0,4.08-.38,5.59-1.15,1.51-.77,2.65-1.99,3.41-3.66s1.14-3.86,1.14-6.55-.39-4.88-1.17-6.55-1.92-2.89-3.44-3.66c-1.52-.77-3.41-1.15-5.66-1.15h-9.78v-7.71h10.32c3.88,0,7.22.77,10.02,2.3,2.81,1.54,4.98,3.73,6.5,6.58s2.29,6.25,2.29,10.19-.76,7.34-2.28,10.2c-1.52,2.86-3.69,5.05-6.5,6.58-2.82,1.53-6.16,2.29-10.04,2.29Z"/>
      <path class="cls-1" d="M281.57,47.92c-3.65,0-6.85-.79-9.6-2.38-2.75-1.59-4.89-3.84-6.43-6.77-1.54-2.93-2.3-6.4-2.3-10.41s.81-7.71,2.42-10.64c1.61-2.93,3.8-5.16,6.55-6.71,2.76-1.54,5.83-2.32,9.23-2.32,2.2,0,4.26.32,6.17.95,1.91.63,3.61,1.53,5.11,2.7,1.49,1.17,2.7,2.56,3.62,4.16.92,1.6,1.49,3.37,1.71,5.3h-9.19c-.19-.8-.5-1.52-.92-2.16s-.95-1.18-1.56-1.63c-.62-.44-1.32-.78-2.11-1.01-.79-.23-1.67-.35-2.62-.35-1.88,0-3.5.46-4.88,1.37-1.38.91-2.43,2.24-3.18,3.97-.74,1.73-1.11,3.83-1.11,6.29s.36,4.56,1.09,6.3,1.78,3.07,3.15,3.99c1.37.92,3.03,1.38,4.98,1.38,1.69,0,3.13-.28,4.31-.84,1.19-.56,2.09-1.37,2.71-2.41.62-1.04.93-2.26.93-3.66l1.79.2h-9.42v-6.66h16.44v5.04c0,3.36-.73,6.26-2.18,8.69-1.45,2.43-3.44,4.31-5.98,5.62-2.53,1.31-5.45,1.97-8.74,1.97Z"/>
      <path class="cls-1" d="M303.44,47.38V9.23h26.91v7.48h-17.85v7.78h16.44v7.3h-16.44v8.12h17.82v7.48h-26.88Z"/>
    </g>
    <g>
      <rect class="cls-1" x="2.13" y="50.26" width="13.64" height="28.14"/>
      <path class="cls-1" d="M32.73,35.83v37.55c-1.63.86-3.48,1.72-5.53,2.52-3.11,1.21-6,1.99-8.52,2.5-.05-14.19-.1-28.38-.14-42.57h14.19Z"/>
      <path class="cls-1" d="M49.61,17.74v44.62c-4.53,3.93-9.53,7.07-14.55,9.57V17.74h14.55Z"/>
      <path class="cls-1" d="M66.34,0c.13,14.22.26,28.43.39,42.65-1.33,2.52-3.11,5.42-5.5,8.43-3.21,4.04-6.53,7.02-9.28,9.15-.08-20.08-.16-40.15-.24-60.22h14.63Z"/>
      <path class="cls-1" d="M59.03,73.61c-15.14,15.38-38.43,20.24-59.03,12.25,2.98-.2,50.71-4.03,67.05-39.74,4.22-9.22,5.37-18.41,5.19-26.25,5.56,19.15.53,39.78-13.21,53.74Z"/>
      <path class="cls-1" d="M59.03,73.61c-15.14,15.38-38.43,20.24-59.03,12.25,2.98-.2,50.71-4.03,67.05-39.74,4.22-9.22,5.37-18.41,5.19-26.25,5.56,19.15.53,39.78-13.21,53.74Z"/>
    </g>
    <g>
      <path class="cls-1" d="M109.58,87.1v-.14c0-1.2.13-2.29.39-3.27.26-.98.59-1.84.99-2.57.4-.74.83-1.35,1.29-1.83.46-.48.88-.83,1.29-1.05l.42,1.19c-.28.24-.57.57-.86,1-.29.42-.55.94-.79,1.56-.24.62-.43,1.34-.58,2.16-.15.82-.22,1.76-.22,2.8v.18c0,1.04.07,1.98.22,2.8.15.82.34,1.55.58,2.17.24.62.5,1.15.79,1.58.29.43.57.77.86,1.03l-.42,1.13c-.4-.22-.83-.57-1.29-1.05-.46-.48-.89-1.09-1.29-1.83-.4-.74-.74-1.59-.99-2.57-.26-.98-.39-2.07-.39-3.27Z"/>
      <path class="cls-1" d="M120.36,81.37l-3.26,10.57h-2.35l4.27-12.25h1.46l-.13,1.68ZM123.02,87.38v1.72h-6.27v-1.72h6.27ZM122.96,91.94l-3.27-10.57-.16-1.68h1.49l4.29,12.25h-2.36Z"/>
      <path class="cls-1" d="M137.4,79.69h2.25v8.51c0,.94-.19,1.69-.58,2.26-.38.57-.9.99-1.55,1.25-.65.26-1.37.4-2.17.4s-1.56-.13-2.21-.4c-.65-.26-1.16-.68-1.53-1.25s-.55-1.33-.55-2.26v-8.51h2.24v8.51c0,.58.08,1.03.25,1.35.16.32.4.54.7.67.31.12.67.19,1.11.19s.8-.06,1.11-.19c.31-.12.54-.35.7-.67.16-.32.25-.77.25-1.35v-8.51Z"/>
      <path class="cls-1" d="M143.91,84.78v7.16h-2.16v-9.1h2.03l.13,1.94ZM143.52,87.06h-.68c0-.66.07-1.25.23-1.79.16-.54.39-1,.69-1.39.3-.39.65-.69,1.07-.9.42-.21.88-.32,1.39-.32.4,0,.77.06,1.1.18s.61.32.85.58c.23.27.42.62.54,1.05.13.43.19.96.19,1.58v5.87h-2.16v-5.89c0-.43-.05-.76-.15-1.01-.1-.25-.25-.43-.45-.54s-.45-.16-.75-.16c-.28,0-.53.07-.76.21-.23.14-.43.34-.59.59s-.29.54-.38.87c-.09.33-.13.68-.13,1.06Z"/>
      <path class="cls-1" d="M151.06,80.44c0-.31.11-.57.32-.78.21-.21.5-.31.88-.31s.67.1.88.31c.21.21.31.47.31.78s-.11.57-.31.77c-.21.21-.5.31-.88.31s-.67-.1-.88-.31c-.21-.21-.32-.47-.32-.77ZM153.33,82.83v9.1h-2.16v-9.1h2.16Z"/>
      <path class="cls-1" d="M159.67,82.83v1.51h-4.91v-1.51h4.91ZM156.1,80.6h2.15v8.79c0,.28.03.49.1.64.07.15.16.24.29.29.12.05.27.08.43.08.12,0,.25,0,.37-.03.12-.02.21-.04.26-.05v1.58c-.16.06-.35.1-.55.14-.21.04-.46.06-.76.06-.44,0-.83-.08-1.17-.25-.35-.17-.62-.44-.81-.82-.2-.38-.3-.88-.3-1.51v-8.93Z"/>
      <path class="cls-1" d="M165.38,87.75v-.73c0-.71.1-1.33.29-1.88s.46-1,.82-1.37c.35-.37.77-.65,1.25-.83.48-.19,1.01-.28,1.59-.28s1.13.09,1.61.28.9.47,1.26.83c.35.37.63.82.82,1.37s.29,1.17.29,1.88v.73c0,.71-.1,1.33-.29,1.88-.19.54-.46,1-.82,1.37-.36.37-.77.64-1.25.83s-1.01.28-1.6.28-1.11-.09-1.6-.28c-.48-.19-.91-.46-1.26-.83-.36-.37-.63-.82-.82-1.37-.19-.54-.29-1.17-.29-1.88ZM167.54,87.02v.73c0,.45.04.85.13,1.19.09.34.21.62.37.85.16.22.35.39.57.5s.47.17.74.17c.3,0,.57-.06.79-.17.22-.11.41-.28.56-.5.15-.22.26-.51.34-.85.07-.34.11-.74.11-1.19v-.73c0-.45-.04-.84-.13-1.18-.09-.34-.21-.62-.37-.85-.16-.23-.35-.4-.58-.51-.23-.11-.47-.17-.75-.17s-.51.06-.73.17-.41.28-.57.51c-.16.23-.28.51-.37.85-.09.34-.13.73-.13,1.18Z"/>
      <path class="cls-1" d="M179.61,82.83v1.51h-5.04v-1.51h5.04ZM177.99,91.94h-2.16v-9.97c0-.68.12-1.25.37-1.71.25-.46.6-.81,1.06-1.06.46-.24,1-.36,1.63-.36.19,0,.38.01.56.04.19.02.36.06.53.11l-.05,1.6c-.09-.02-.19-.04-.32-.05-.13-.01-.25-.02-.37-.02-.27,0-.5.06-.69.17-.19.11-.34.27-.43.49-.1.21-.15.48-.15.79v9.97Z"/>
      <path class="cls-1" d="M188.05,79.69v12.25h-2.25v-12.25h2.25ZM193.05,79.69v1.72h-5.51v-1.72h5.51ZM192.42,85.03v1.72h-4.89v-1.72h4.89Z"/>
      <path class="cls-1" d="M194.71,80.44c0-.31.11-.57.32-.78.21-.21.5-.31.88-.31s.67.1.88.31c.21.21.31.47.31.78s-.11.57-.31.77c-.21.21-.5.31-.88.31s-.67-.1-.88-.31c-.21-.21-.32-.47-.32-.77ZM196.98,82.83v9.1h-2.16v-9.1h2.16Z"/>
      <path class="cls-1" d="M201.4,84.78v7.16h-2.16v-9.1h2.03l.13,1.94ZM201.01,87.06h-.68c0-.66.07-1.25.23-1.79.16-.54.39-1,.69-1.39.3-.39.65-.69,1.07-.9.42-.21.88-.32,1.39-.32.4,0,.77.06,1.1.18s.61.32.85.58c.23.27.42.62.54,1.05.13.43.19.96.19,1.58v5.87h-2.16v-5.89c0-.43-.05-.76-.15-1.01-.1-.25-.25-.43-.45-.54s-.45-.16-.75-.16c-.28,0-.53.07-.76.21-.23.14-.43.34-.59.59s-.29.54-.38.87c-.09.33-.13.68-.13,1.06Z"/>
      <path class="cls-1" d="M212.09,90.46c.28,0,.53-.05.74-.16s.39-.27.52-.5c.13-.23.2-.52.21-.89h2.03c-.01.65-.18,1.21-.49,1.69s-.73.85-1.25,1.11c-.52.26-1.1.39-1.73.39s-1.24-.1-1.73-.29-.9-.48-1.22-.85c-.32-.37-.56-.82-.72-1.35-.16-.53-.24-1.14-.24-1.82v-.82c0-.68.08-1.28.24-1.82.16-.53.4-.98.72-1.35.32-.37.72-.65,1.21-.85s1.06-.29,1.72-.29c.7,0,1.31.13,1.83.4.51.27.92.66,1.21,1.17s.44,1.14.45,1.88h-2.03c-.01-.39-.08-.72-.19-.99-.12-.27-.28-.47-.5-.6-.21-.13-.48-.2-.8-.2-.35,0-.64.06-.87.18-.22.12-.4.3-.52.53s-.2.51-.25.84-.07.7-.07,1.11v.82c0,.43.02.8.06,1.13s.12.61.25.84.29.4.52.52c.23.12.52.18.88.18Z"/>
      <path class="cls-1" d="M222.2,86.39v1.27s-1.03,0-1.03,0c-.31,0-.59.04-.83.11-.25.08-.46.18-.62.32-.17.14-.3.3-.39.5-.09.2-.13.41-.13.65,0,.29.04.52.13.7.09.18.22.31.4.4s.39.13.64.13c.35,0,.65-.07.9-.21.26-.14.45-.3.59-.5.14-.2.19-.38.16-.54l.49.82c-.05.21-.14.44-.27.67-.13.24-.3.46-.51.67s-.46.39-.76.52c-.3.13-.64.2-1.03.2-.56,0-1.06-.11-1.5-.32-.44-.21-.78-.52-1.03-.92-.25-.4-.37-.88-.37-1.44,0-.45.08-.87.25-1.24.17-.37.41-.69.74-.96.33-.27.74-.47,1.24-.62.5-.15,1.08-.22,1.74-.22h1.19ZM221.92,90.09v-4.54c0-.31-.05-.57-.14-.76-.1-.19-.23-.33-.42-.42-.18-.09-.41-.13-.68-.13s-.52.05-.72.16-.34.25-.44.43-.15.39-.15.63h-2.16c0-.36.08-.72.25-1.05.16-.34.4-.64.71-.9.31-.26.68-.47,1.12-.62.44-.15.92-.23,1.46-.23.64,0,1.21.1,1.71.29.5.19.89.5,1.18.93.29.43.43.99.43,1.69v4.25c0,.42.03.79.09,1.12s.14.61.25.85v.13h-2.19c-.1-.22-.17-.5-.22-.84-.05-.34-.07-.68-.07-1.01Z"/>
      <path class="cls-1" d="M228.43,84.59v7.35h-2.16v-9.1h2.05l.1,1.76ZM230.84,82.77v1.94c-.13-.03-.26-.05-.4-.05s-.28-.01-.41-.01c-.3,0-.55.05-.77.14-.22.1-.4.23-.55.41-.15.18-.26.4-.35.65-.08.25-.13.54-.15.86l-.46.02c0-.57.05-1.1.15-1.59s.25-.92.45-1.29c.2-.37.45-.65.75-.86.3-.21.65-.31,1.05-.31.11,0,.24.01.38.03s.24.05.31.08Z"/>
      <path class="cls-1" d="M235.97,92.1c-.65,0-1.22-.09-1.73-.27s-.93-.44-1.29-.79-.62-.78-.8-1.3c-.19-.51-.28-1.11-.28-1.79v-.88c0-.77.1-1.43.29-1.99s.46-1.02.81-1.38.75-.63,1.23-.8c.47-.17.99-.26,1.54-.26.63,0,1.17.09,1.64.28s.84.46,1.14.83.52.83.67,1.37.22,1.17.22,1.88v.98h-6.5v-1.48h4.37v-.21c-.01-.42-.07-.77-.17-1.07-.1-.3-.26-.53-.48-.69-.22-.16-.52-.24-.9-.24-.28,0-.52.05-.74.14-.22.1-.39.25-.53.46-.14.21-.25.5-.32.85-.07.36-.11.79-.11,1.32v.88c0,.45.04.84.13,1.15.09.31.22.57.4.77.18.2.4.35.65.44.26.09.55.14.89.14.5,0,.93-.09,1.29-.26.36-.17.67-.39.94-.67l.95,1.2c-.18.22-.42.43-.72.64-.3.21-.67.38-1.1.52s-.93.2-1.5.2Z"/>
      <path class="cls-1" d="M244.95,92.1c-.65,0-1.22-.09-1.73-.27s-.93-.44-1.29-.79-.62-.78-.8-1.3c-.19-.51-.28-1.11-.28-1.79v-.88c0-.77.1-1.43.29-1.99s.46-1.02.81-1.38.75-.63,1.23-.8c.47-.17.99-.26,1.54-.26.63,0,1.17.09,1.64.28s.84.46,1.14.83.52.83.67,1.37.22,1.17.22,1.88v.98h-6.5v-1.48h4.37v-.21c-.01-.42-.07-.77-.17-1.07-.1-.3-.26-.53-.48-.69-.22-.16-.52-.24-.9-.24-.28,0-.52.05-.74.14-.22.1-.39.25-.53.46-.14.21-.25.5-.32.85-.07.36-.11.79-.11,1.32v.88c0,.45.04.84.13,1.15.09.31.22.57.4.77.18.2.4.35.65.44.26.09.55.14.89.14.5,0,.93-.09,1.29-.26.36-.17.67-.39.94-.67l.95,1.2c-.18.22-.42.43-.72.64-.3.21-.67.38-1.1.52s-.93.2-1.5.2Z"/>
      <path class="cls-1" d="M252.26,84.59v7.35h-2.16v-9.1h2.05l.1,1.76ZM254.68,82.77v1.94c-.13-.03-.26-.05-.4-.05s-.28-.01-.41-.01c-.3,0-.55.05-.77.14-.22.1-.4.23-.55.41-.15.18-.26.4-.35.65-.08.25-.13.54-.15.86l-.46.02c0-.57.05-1.1.15-1.59s.25-.92.45-1.29c.2-.37.45-.65.75-.86.3-.21.65-.31,1.05-.31.11,0,.24.01.38.03s.24.05.31.08Z"/>
      <path class="cls-1" d="M262.93,79.69v12.25h-2.25v-12.25h2.25ZM268.13,79.69v1.72h-5.79v-1.72h5.79ZM267.4,84.78v1.68h-5.06v-1.68h5.06ZM268.19,90.23v1.71h-5.85v-1.71h5.85Z"/>
      <path class="cls-1" d="M269.34,87.75v-.72c0-.75.07-1.39.22-1.94.15-.55.37-1,.65-1.37.29-.36.63-.63,1.04-.81s.87-.26,1.38-.26.93.1,1.29.31c.36.2.67.5.93.87.25.38.45.82.61,1.34.15.52.25,1.1.31,1.74v.99c-.07.62-.18,1.18-.32,1.7-.15.51-.35.96-.6,1.33-.25.37-.56.66-.93.86-.37.2-.8.31-1.29.31s-.97-.09-1.37-.28c-.4-.19-.75-.46-1.04-.82-.29-.36-.5-.82-.65-1.36-.15-.54-.22-1.17-.22-1.89ZM271.5,87.04v.72c0,.47.03.87.09,1.2s.16.61.3.83c.14.22.31.38.54.48.22.1.49.16.8.16.39,0,.72-.09.97-.27s.44-.42.58-.73c.14-.31.24-.65.29-1.02v-1.96c-.03-.3-.09-.57-.19-.83-.09-.25-.21-.48-.36-.67-.15-.19-.33-.34-.54-.45s-.46-.16-.74-.16c-.32,0-.58.05-.81.16-.22.11-.4.27-.54.5-.14.22-.24.5-.3.84-.06.34-.1.74-.1,1.21ZM274.72,90.04v-11.02h2.16v12.92h-1.95s-.2-1.9-.2-1.9Z"/>
      <path class="cls-1" d="M283.12,82.83v1.51h-4.91v-1.51h4.91ZM279.55,80.6h2.15v8.79c0,.28.03.49.1.64.07.15.16.24.29.29.12.05.27.08.43.08.12,0,.25,0,.37-.03.12-.02.21-.04.26-.05v1.58c-.16.06-.35.1-.55.14-.21.04-.46.06-.76.06-.44,0-.83-.08-1.17-.25-.35-.17-.62-.44-.81-.82-.2-.38-.3-.88-.3-1.51v-8.93Z"/>
      <path class="cls-1" d="M288.62,92.1c-.65,0-1.22-.09-1.73-.27s-.93-.44-1.29-.79-.62-.78-.8-1.3c-.19-.51-.28-1.11-.28-1.79v-.88c0-.77.1-1.43.29-1.99s.46-1.02.81-1.38.75-.63,1.23-.8c.47-.17.99-.26,1.54-.26.63,0,1.17.09,1.64.28s.84.46,1.14.83.52.83.67,1.37.22,1.17.22,1.88v.98h-6.5v-1.48h4.37v-.21c-.01-.42-.07-.77-.17-1.07-.1-.3-.26-.53-.48-.69-.22-.16-.52-.24-.9-.24-.28,0-.52.05-.74.14-.22.1-.39.25-.53.46-.14.21-.25.5-.32.85-.07.36-.11.79-.11,1.32v.88c0,.45.04.84.13,1.15.09.31.22.57.4.77.18.2.4.35.65.44.26.09.55.14.89.14.5,0,.93-.09,1.29-.26.36-.17.67-.39.94-.67l.95,1.2c-.18.22-.42.43-.72.64-.3.21-.67.38-1.1.52s-.93.2-1.5.2Z"/>
      <path class="cls-1" d="M297.33,90.46c.28,0,.53-.05.74-.16s.39-.27.52-.5c.13-.23.2-.52.21-.89h2.03c-.01.65-.18,1.21-.49,1.69s-.73.85-1.25,1.11c-.52.26-1.1.39-1.73.39s-1.24-.1-1.73-.29-.9-.48-1.22-.85c-.32-.37-.56-.82-.72-1.35-.16-.53-.24-1.14-.24-1.82v-.82c0-.68.08-1.28.24-1.82.16-.53.4-.98.72-1.35.32-.37.72-.65,1.21-.85s1.06-.29,1.72-.29c.7,0,1.31.13,1.83.4.51.27.92.66,1.21,1.17s.44,1.14.45,1.88h-2.03c-.01-.39-.08-.72-.19-.99-.12-.27-.28-.47-.5-.6-.21-.13-.48-.2-.8-.2-.35,0-.64.06-.87.18-.22.12-.4.3-.52.53s-.2.51-.25.84-.07.7-.07,1.11v.82c0,.43.02.8.06,1.13s.12.61.25.84.29.4.52.52c.23.12.52.18.88.18Z"/>
      <path class="cls-1" d="M304.63,79.01v12.92h-2.15v-12.92h2.15ZM304.25,87.06h-.68c0-.63.07-1.22.22-1.75.15-.53.38-1,.67-1.4s.64-.71,1.05-.92.87-.32,1.37-.32c.41,0,.79.06,1.12.19.34.13.63.32.87.59.24.27.43.62.56,1.06.13.43.19.96.19,1.59v5.85h-2.16v-5.86c0-.43-.05-.77-.15-1.03s-.25-.43-.45-.55c-.2-.11-.45-.17-.75-.17s-.56.07-.79.21-.43.34-.59.59-.28.54-.36.87-.12.68-.12,1.06Z"/>
      <path class="cls-1" d="M324.14,79.69v1.72h-9.07v-1.72h9.07ZM320.71,79.69v12.25h-2.24v-12.25h2.24Z"/>
      <path class="cls-1" d="M328.7,92.1c-.65,0-1.22-.09-1.73-.27s-.93-.44-1.29-.79-.62-.78-.8-1.3c-.19-.51-.28-1.11-.28-1.79v-.88c0-.77.1-1.43.29-1.99s.46-1.02.81-1.38.75-.63,1.23-.8c.47-.17.99-.26,1.54-.26.63,0,1.17.09,1.64.28s.84.46,1.14.83.52.83.67,1.37.22,1.17.22,1.88v.98h-6.5v-1.48h4.37v-.21c-.01-.42-.07-.77-.17-1.07-.1-.3-.26-.53-.48-.69-.22-.16-.52-.24-.9-.24-.28,0-.52.05-.74.14-.22.1-.39.25-.53.46-.14.21-.25.5-.32.85-.07.36-.11.79-.11,1.32v.88c0,.45.04.84.13,1.15.09.31.22.57.4.77.18.2.4.35.65.44.26.09.55.14.89.14.5,0,.93-.09,1.29-.26.36-.17.67-.39.94-.67l.95,1.2c-.18.22-.42.43-.72.64-.3.21-.67.38-1.1.52s-.93.2-1.5.2Z"/>
      <path class="cls-1" d="M337.4,90.46c.28,0,.53-.05.74-.16s.39-.27.52-.5c.13-.23.2-.52.21-.89h2.03c-.01.65-.18,1.21-.49,1.69s-.73.85-1.25,1.11c-.52.26-1.1.39-1.73.39s-1.24-.1-1.73-.29-.9-.48-1.22-.85c-.32-.37-.56-.82-.72-1.35-.16-.53-.24-1.14-.24-1.82v-.82c0-.68.08-1.28.24-1.82.16-.53.4-.98.72-1.35.32-.37.72-.65,1.21-.85s1.06-.29,1.72-.29c.7,0,1.31.13,1.83.4.51.27.92.66,1.21,1.17s.44,1.14.45,1.88h-2.03c-.01-.39-.08-.72-.19-.99-.12-.27-.28-.47-.5-.6-.21-.13-.48-.2-.8-.2-.35,0-.64.06-.87.18-.22.12-.4.3-.52.53s-.2.51-.25.84-.07.7-.07,1.11v.82c0,.43.02.8.06,1.13s.12.61.25.84.29.4.52.52c.23.12.52.18.88.18Z"/>
      <path class="cls-1" d="M344.7,79.01v12.92h-2.15v-12.92h2.15ZM344.32,87.06h-.68c0-.63.07-1.22.22-1.75.15-.53.38-1,.67-1.4s.64-.71,1.05-.92.87-.32,1.37-.32c.41,0,.79.06,1.12.19.34.13.63.32.87.59.24.27.43.62.56,1.06.13.43.19.96.19,1.59v5.85h-2.16v-5.86c0-.43-.05-.77-.15-1.03s-.25-.43-.45-.55c-.2-.11-.45-.17-.75-.17s-.56.07-.79.21-.43.34-.59.59-.28.54-.36.87-.12.68-.12,1.06Z"/>
      <path class="cls-1" d="M353.95,84.78v7.16h-2.16v-9.1h2.03l.13,1.94ZM353.57,87.06h-.68c0-.66.07-1.25.23-1.79.16-.54.39-1,.69-1.39.3-.39.65-.69,1.07-.9.42-.21.88-.32,1.39-.32.4,0,.77.06,1.1.18s.61.32.85.58c.23.27.42.62.54,1.05.13.43.19.96.19,1.58v5.87h-2.16v-5.89c0-.43-.05-.76-.15-1.01-.1-.25-.25-.43-.45-.54s-.45-.16-.75-.16c-.28,0-.53.07-.76.21-.23.14-.43.34-.59.59s-.29.54-.38.87c-.09.33-.13.68-.13,1.06Z"/>
      <path class="cls-1" d="M360.77,87.75v-.73c0-.71.1-1.33.29-1.88s.46-1,.82-1.37c.35-.37.77-.65,1.25-.83.48-.19,1.01-.28,1.59-.28s1.13.09,1.61.28.9.47,1.26.83c.35.37.63.82.82,1.37s.29,1.17.29,1.88v.73c0,.71-.1,1.33-.29,1.88-.19.54-.46,1-.82,1.37-.36.37-.77.64-1.25.83s-1.01.28-1.6.28-1.11-.09-1.6-.28c-.48-.19-.91-.46-1.26-.83-.36-.37-.63-.82-.82-1.37-.19-.54-.29-1.17-.29-1.88ZM362.93,87.02v.73c0,.45.04.85.13,1.19.09.34.21.62.37.85.16.22.35.39.57.5s.47.17.74.17c.3,0,.57-.06.79-.17.22-.11.41-.28.56-.5.15-.22.26-.51.34-.85.07-.34.11-.74.11-1.19v-.73c0-.45-.04-.84-.13-1.18-.09-.34-.21-.62-.37-.85-.16-.23-.35-.4-.58-.51-.23-.11-.47-.17-.75-.17s-.51.06-.73.17-.41.28-.57.51c-.16.23-.28.51-.37.85-.09.34-.13.73-.13,1.18Z"/>
      <path class="cls-1" d="M372.84,79.01v12.92h-2.16v-12.92h2.16Z"/>
      <path class="cls-1" d="M374.82,87.75v-.73c0-.71.1-1.33.29-1.88s.46-1,.82-1.37c.35-.37.77-.65,1.25-.83.48-.19,1.01-.28,1.59-.28s1.13.09,1.61.28.9.47,1.26.83c.35.37.63.82.82,1.37s.29,1.17.29,1.88v.73c0,.71-.1,1.33-.29,1.88-.19.54-.46,1-.82,1.37-.36.37-.77.64-1.25.83s-1.01.28-1.6.28-1.11-.09-1.6-.28c-.48-.19-.91-.46-1.26-.83-.36-.37-.63-.82-.82-1.37-.19-.54-.29-1.17-.29-1.88ZM376.97,87.02v.73c0,.45.04.85.13,1.19.09.34.21.62.37.85.16.22.35.39.57.5s.47.17.74.17c.3,0,.57-.06.79-.17.22-.11.41-.28.56-.5.15-.22.26-.51.34-.85.07-.34.11-.74.11-1.19v-.73c0-.45-.04-.84-.13-1.18-.09-.34-.21-.62-.37-.85-.16-.23-.35-.4-.58-.51-.23-.11-.47-.17-.75-.17s-.51.06-.73.17-.41.28-.57.51c-.16.23-.28.51-.37.85-.09.34-.13.73-.13,1.18Z"/>
      <path class="cls-1" d="M384.27,87.75v-.72c0-.75.08-1.39.23-1.94s.38-1,.67-1.37.64-.63,1.06-.81c.42-.17.89-.26,1.41-.26s.99.1,1.36.31c.37.2.68.5.92.87.24.38.42.82.56,1.34.14.52.23,1.1.3,1.74v.99c-.06.62-.17,1.18-.31,1.7-.15.51-.35.96-.6,1.33-.25.37-.56.66-.92.86-.37.2-.81.31-1.32.31s-.97-.09-1.39-.28c-.41-.19-.77-.46-1.06-.82-.29-.36-.52-.82-.67-1.36-.15-.54-.23-1.17-.23-1.89ZM389.94,82.83h1.95v9.14c0,.82-.17,1.49-.5,2.02s-.79.91-1.37,1.17c-.59.25-1.26.38-2.04.38-.28,0-.62-.04-1.01-.13-.39-.08-.77-.21-1.14-.37s-.68-.36-.92-.61l.79-1.36c.29.27.63.48,1.03.63.39.15.77.22,1.14.22.39,0,.73-.06,1-.18s.49-.32.63-.6c.15-.28.22-.65.22-1.12v-7.12l.21-2.06ZM386.43,87.04v.72c0,.47.04.87.11,1.2.07.34.18.61.32.83.14.22.33.38.56.48.23.1.5.16.81.16.41,0,.75-.09,1-.27s.45-.42.59-.73c.14-.31.24-.65.29-1.02v-1.96c-.03-.3-.09-.57-.18-.83-.09-.25-.21-.48-.36-.67-.15-.19-.34-.34-.56-.45-.22-.11-.48-.16-.77-.16s-.58.05-.81.16c-.23.11-.42.27-.57.5-.15.22-.26.5-.33.84-.07.34-.11.74-.11,1.21Z"/>
      <path class="cls-1" d="M394.06,80.44c0-.31.11-.57.32-.78.21-.21.5-.31.88-.31s.67.1.88.31c.21.21.31.47.31.78s-.11.57-.31.77c-.21.21-.5.31-.88.31s-.67-.1-.88-.31c-.21-.21-.32-.47-.32-.77ZM396.33,82.83v9.1h-2.16v-9.1h2.16Z"/>
      <path class="cls-1" d="M402.45,92.1c-.65,0-1.22-.09-1.73-.27s-.93-.44-1.29-.79-.62-.78-.8-1.3c-.19-.51-.28-1.11-.28-1.79v-.88c0-.77.1-1.43.29-1.99s.46-1.02.81-1.38.75-.63,1.23-.8c.47-.17.99-.26,1.54-.26.63,0,1.17.09,1.64.28s.84.46,1.14.83.52.83.67,1.37.22,1.17.22,1.88v.98h-6.5v-1.48h4.37v-.21c-.01-.42-.07-.77-.17-1.07-.1-.3-.26-.53-.48-.69-.22-.16-.52-.24-.9-.24-.28,0-.52.05-.74.14-.22.1-.39.25-.53.46-.14.21-.25.5-.32.85-.07.36-.11.79-.11,1.32v.88c0,.45.04.84.13,1.15.09.31.22.57.4.77.18.2.4.35.65.44.26.09.55.14.89.14.5,0,.93-.09,1.29-.26.36-.17.67-.39.94-.67l.95,1.2c-.18.22-.42.43-.72.64-.3.21-.67.38-1.1.52s-.93.2-1.5.2Z"/>
      <path class="cls-1" d="M412.24,89.54c0-.19-.06-.36-.18-.51-.12-.15-.31-.3-.58-.44-.26-.15-.62-.3-1.06-.47-.46-.17-.87-.35-1.23-.52-.36-.17-.66-.37-.91-.58s-.43-.45-.56-.73c-.13-.27-.19-.59-.19-.96s.08-.72.23-1.04c.15-.32.38-.6.67-.85.29-.24.64-.44,1.05-.57.41-.14.87-.21,1.38-.21.72,0,1.34.12,1.86.36s.91.57,1.18.99c.27.42.41.91.41,1.46h-2.16c0-.23-.05-.44-.14-.63-.09-.19-.23-.34-.43-.45-.19-.12-.43-.17-.73-.17-.27,0-.5.05-.68.14-.18.09-.32.22-.41.37-.09.15-.13.33-.13.52,0,.14.03.26.08.37s.15.21.28.31c.13.1.3.2.52.3.22.1.5.22.84.34.67.24,1.23.48,1.67.73s.78.55,1,.88c.22.34.33.75.33,1.25,0,.4-.08.77-.25,1.09-.16.33-.4.61-.7.84-.31.24-.67.42-1.1.54-.43.13-.91.19-1.43.19-.78,0-1.45-.14-1.98-.43-.54-.28-.95-.65-1.23-1.1-.28-.45-.42-.92-.42-1.42h2.08c.02.36.1.64.25.84.15.2.34.34.58.42s.48.11.73.11c.3,0,.55-.04.75-.11s.35-.19.45-.34.15-.33.15-.54Z"/>
      <path class="cls-1" d="M425.22,87.39h-2.84v-1.71h2.84c.47,0,.84-.09,1.13-.27.28-.18.49-.43.62-.74.13-.31.2-.67.2-1.07s-.07-.74-.2-1.08-.34-.61-.62-.82c-.28-.21-.66-.31-1.13-.31h-2.2v10.53h-2.25v-12.25h4.45c.89,0,1.65.17,2.28.5.63.34,1.11.8,1.44,1.38.33.59.5,1.26.5,2.02s-.17,1.47-.5,2.04c-.33.57-.81,1-1.44,1.31s-1.39.46-2.28.46Z"/>
      <path class="cls-1" d="M432.87,79.69l2.85,9.98.42,2.27h-1.67l-4.02-12.25h2.42ZM435.37,89.66l2.87-9.98h2.43l-4.02,12.25h-1.67l.39-2.27Z"/>
      <path class="cls-1" d="M450.54,79.69v1.72h-9.07v-1.72h9.07ZM447.1,79.69v12.25h-2.24v-12.25h2.24Z"/>
      <path class="cls-1" d="M450.08,90.91c0-.33.12-.6.35-.82s.55-.33.96-.33.73.11.96.33c.23.22.35.49.35.82s-.12.58-.35.8c-.23.22-.55.33-.96.33s-.73-.11-.96-.33-.35-.49-.35-.8Z"/>
      <path class="cls-1" d="M461.97,79.69v12.25h-2.25v-12.25h2.25ZM466.98,90.23v1.71h-5.6v-1.71h5.6Z"/>
      <path class="cls-1" d="M474.89,79.69v1.72h-9.07v-1.72h9.07ZM471.46,79.69v12.25h-2.24v-12.25h2.24Z"/>
      <path class="cls-1" d="M478.91,79.69v12.25h-2.25v-12.25h2.25ZM479.96,91.94h-2.34l.02-1.71h2.32c.72,0,1.3-.12,1.73-.37.43-.24.74-.62.93-1.12.19-.5.29-1.15.29-1.94v-1.99c0-.61-.05-1.12-.16-1.55-.11-.43-.27-.78-.5-1.05-.23-.27-.52-.47-.88-.61s-.8-.2-1.31-.2h-2.48v-1.72h2.48c.77,0,1.47.11,2.09.34.62.22,1.16.55,1.61.99.45.43.79.97,1.03,1.61.24.64.36,1.37.36,2.2v1.98c0,.83-.12,1.56-.36,2.2s-.59,1.17-1.04,1.61-.99.76-1.63.99c-.63.22-1.35.34-2.16.34Z"/>
      <path class="cls-1" d="M486.36,90.91c0-.33.12-.6.35-.82s.55-.33.96-.33.73.11.96.33c.23.22.35.49.35.82s-.12.58-.35.8c-.23.22-.55.33-.96.33s-.73-.11-.96-.33-.35-.49-.35-.8Z"/>
      <path class="cls-1" d="M495.35,86.96v.14c0,1.18-.13,2.26-.39,3.24-.26.98-.59,1.83-1.01,2.57-.41.74-.85,1.36-1.32,1.85-.47.49-.91.85-1.32,1.06l-.42-1.13c.28-.24.56-.58.85-1.01s.55-.96.8-1.58c.24-.63.43-1.35.58-2.18.14-.83.22-1.77.22-2.81v-.18c0-1.04-.08-1.98-.23-2.81s-.35-1.56-.6-2.18c-.25-.62-.52-1.15-.8-1.58-.28-.43-.56-.76-.81-1.01l.42-1.14c.41.22.85.57,1.32,1.06.46.49.9,1.11,1.32,1.85.41.74.75,1.6,1.01,2.57.26.97.39,2.05.39,3.24Z"/>
    </g>
  </g>
</svg>