<?xml version="1.0" encoding="UTF-8"?>
<svg id="Layer_2" data-name="Layer 2" xmlns="http://www.w3.org/2000/svg" viewBox="0 0 64.65 61.21">
  <defs>
    <style>
      .cls-1 {
        fill: #fff;
      }
    </style>
  </defs>
  <g id="Layer_1-2" data-name="Layer 1">
    <g>
      <path class="cls-1" d="M15.02,29.45H5.15v22.74c3.34-.05,6.64-.33,9.87-.84v-21.9Z"/>
      <path class="cls-1" d="M28.38,47.77v-28.62h-9.87v31.54c3.31-.7,6.54-1.65,9.68-2.85.06-.02.12-.05.19-.07Z"/>
      <path class="cls-1" d="M41.91,9.36h-9.87v36.97c2.96-1.22,6.44-2.83,9.87-4.98V9.36Z"/>
      <path class="cls-1" d="M55.44,26.74V0h-9.87v38.8c3.97-3.06,7.58-6.98,9.87-12.06Z"/>
      <path class="cls-1" d="M64.48,29.45c.64-4.85-.78-8.82-.78-8.82-.57-1.59-1.27-2.81-1.79-3.61.17,1.02.33,2.52.21,4.33-.62,9.02-7.83,15.12-13.34,19.66-13.33,10.97-27.49,13.47-31.85,14.11-7.05,1.02-12.97.7-16.93.26,1.66,1.42,4.3,3.32,7.93,4.6,2.39.84,6.51,1.87,14.23.77,4.67-.67,14.08-2.12,24.32-9,9.2-6.18,17.1-15.43,18-22.28Z"/>
    </g>
  </g>
</svg>