<?xml version="1.0" encoding="UTF-8"?>
<svg id="Layer_2" data-name="Layer 2" xmlns="http://www.w3.org/2000/svg" viewBox="0 0 38.53 39.18">
  <defs>
    <style>
      .cls-1 {
        fill: #fed700;
      }
    </style>
  </defs>
  <g id="Layer_1-2" data-name="Layer 1">
    <g>
      <path class="cls-1" d="M36.07,34.37v-3.6h-1.28v-13.03h1.28v-2.71h2.08v-4.8L19.13,0,.3,10.1v4.93h1.96v2.71h1.32v13.03h-1.32v3.6H0v4.81h38.53v-4.81h-2.46ZM35.07,33.47h-5.48v-1.71h5.48v1.71ZM33.79,30.65h-2.83v-12.92h2.83v12.92ZM35.07,16.73h-5.48v-1.71h5.48v1.71ZM36.43,10.44H1.78L19.13,1.13l17.3,9.3ZM1.3,14.02v-2.59h35.85v2.59H1.3ZM3.25,16.73v-1.71h5.48v1.71H3.25ZM7.4,17.73v12.92h-2.83v-12.92h2.83ZM3.25,31.77h5.48v1.71H3.25v-1.71ZM8.4,30.77v-13.03h1.33v-2.71h18.86v2.71h1.37v13.03h-1.37v3.6H9.73v-3.6h-1.33ZM37.53,38.18H1v-2.81h36.53v2.81Z"/>
      <path class="cls-1" d="M19.31,9.01c1.35,0,2.46-1.1,2.46-2.46s-1.1-2.46-2.46-2.46-2.46,1.1-2.46,2.46,1.1,2.46,2.46,2.46ZM19.31,5.1c.8,0,1.46.65,1.46,1.46s-.65,1.46-1.46,1.46-1.46-.65-1.46-1.46.65-1.46,1.46-1.46Z"/>
      <path class="cls-1" d="M19.31,32.52c4.59,0,8.33-3.74,8.33-8.33s-3.74-8.33-8.33-8.33-8.33,3.74-8.33,8.33,3.74,8.33,8.33,8.33ZM19.31,16.86c4.04,0,7.33,3.29,7.33,7.33s-3.29,7.33-7.33,7.33-7.33-3.29-7.33-7.33,3.29-7.33,7.33-7.33Z"/>
      <path class="cls-1" d="M19.22,28.67l.08.09h1.79l-.33-.41c-.86-1.05-1.76-2.15-2.62-3.07,1.26-.19,2.11-.92,2.31-2h1.33v-1.1h-1.35c-.06-.27-.16-.51-.31-.72h1.66v-1.1h-5.55v1.28h1.1c.74,0,1.23.18,1.47.54h-2.57v1.1h2.68c-.26.75-1.19.87-1.77.87h-.91v1.09l.07.07c1.12,1.19,1.99,2.22,2.93,3.36Z"/>
    </g>
  </g>
</svg>