<?xml version="1.0" encoding="UTF-8"?>
<svg id="Layer_2" data-name="Layer 2" xmlns="http://www.w3.org/2000/svg" viewBox="0 0 45.94 39.9">
  <defs>
    <style>
      .cls-1 {
        fill: #fed700;
      }
    </style>
  </defs>
  <g id="Layer_1-2" data-name="Layer 1">
    <g>
      <path class="cls-1" d="M45.94,39.9H1.38v-1.86h6.35v-6.87c2.37-.01,4.74-.02,7.11-.03,0,2.3,0,4.6,0,6.9h2.71l-.02-15.24h6.96c0,5.08.01,10.16.02,15.24h3.22c0-6.93,0-13.85,0-20.78h6.94c0,6.93,0,13.85,0,20.78h3.05c-.01-9.13-.03-18.25-.04-27.38h6.91c.03,9.13.05,18.25.08,27.38l1.27.02v1.84Z"/>
      <path class="cls-1" d="M5.16,14.02c1.87-.21,3.27.81,5.38.64,1.14-.1,2.11-.74,3.22-.69,2.45.09,4.78,2.28,5.6,4.75.14.44.23.86.28,1.25.11.85-.54,1.59-1.39,1.6h-1.75c-.76.02-1.38.63-1.39,1.39-.03,1.92-.06,3.85-.09,5.77-.01.71-.59,1.28-1.31,1.28-2.21-.02-4.41-.03-6.62-.05-.64,0-1.17.51-1.18,1.15l-.07,4.61s-.4.78-1.22.87c-.62.06-1.24-.28-1.53-.87.02-1.9.03-3.8.04-5.7-1.21-.81-2.62-1.37-2.95-2.98-.35-1.72-.21-8.13.47-9.71.72-1.69,2.67-3.09,4.5-3.29Z"/>
      <path class="cls-1" d="M42.81,3.47l-10.03,10.06-3.4-1.9c-1.85,1.83-3.69,3.66-5.54,5.48-.41.24-.92.15-1.21-.18-.25-.29-.3-.72-.11-1.08,2.23-2.17,4.46-4.33,6.7-6.5,1.03.61,2.07,1.23,3.1,1.84,3.12-3.12,6.24-6.23,9.36-9.35-1.26,0-2.52.01-3.78.02V0h6.81c0,2.19,0,4.37,0,6.56h-1.89v-3.09Z"/>
    </g>
  </g>
</svg>