<?xml version="1.0" encoding="UTF-8"?>
<svg id="Layer_2" data-name="Layer 2" xmlns="http://www.w3.org/2000/svg" viewBox="0 0 39.17 38.15">
  <defs>
    <style>
      .cls-1 {
        fill: #fed700;
      }
    </style>
  </defs>
  <g id="Layer_1-2" data-name="Layer 1">
    <g>
      <path class="cls-1" d="M39.17,0c-.41,3.32-.82,6.65-1.22,9.97-1.04-1.02-2.08-2.04-3.12-3.06-3,3.01-5.99,6.03-8.99,9.04-1.58-1.31-3.16-2.62-4.73-3.93-5.14,5.04-10.29,10.07-15.43,15.11-.81-.83-1.61-1.65-2.42-2.48,6.04-5.94,12.08-11.89,18.13-17.83,1.47,1.25,2.94,2.49,4.41,3.74l6.35-6.31c-.94-1-1.87-2-2.81-3,3.28-.42,6.56-.83,9.84-1.25Z"/>
      <path class="cls-1" d="M38.62,13.49v24.66h-8.11V13.49h8.11Z"/>
      <path class="cls-1" d="M28.43,38.15h-8c0-5.95.01-11.9.02-17.85h7.79c.06,5.95.13,11.9.19,17.85Z"/>
      <path class="cls-1" d="M18.18,26.79v11.36h-8.08c0-3.79-.02-7.57-.03-11.36h8.11Z"/>
      <path class="cls-1" d="M7.79,32.63v5.52H0v-5.52h7.79Z"/>
    </g>
  </g>
</svg>